/* XPM */
static char *_3189_1bfeee435a99bd3d4234dda964ba87ff5bc10238e61072e3512bbe6bd9097355[] = {
/* columns rows colors chars-per-pixel */
"64 64 26 1 ",
"  c #86552C",
". c #8A572E",
"X c #8C5A2F",
"o c #8A5630",
"O c #8E5B33",
"+ c #925E35",
"@ c #935F39",
"# c #946136",
"$ c #986337",
"% c #966339",
"& c #9A663C",
"* c #9D693E",
"= c #A06B3F",
"- c #9C6740",
"; c #9E6B41",
": c #A26D43",
"> c #A36F48",
", c #A57146",
"< c #A87347",
"1 c #A67249",
"2 c #AA754B",
"3 c #AD794D",
"4 c #B07C4E",
"5 c #AE7A51",
"6 c #B17D52",
"7 c #B68155",
/* pixels */
":,,=,27===3&@2,,*%**XX;7;,77;%;7%%O*;%*;<3<23:%%&:,o;;%;%;*****=",
":,=*=<7=*,51:2,***;7,%%7,,,*7%%;7;;O#%%762,2,&&:,1,O;;%%*%%%****",
"===$*231&1233==***%7;#%,;,;,O%##;7;%%%*71:;&+#*<,;,#%;%&%#;&<,*#",
"&**$:31&&7:;,**&**,,X%7%***%7%%#%;7;,*%7>;-#$*22,;1%%%#%%777<,*%",
"&$#&15>@:1*#***=;,,;X*7%**%%**#O#&7777*,>;;-=27=*=1&%;*%7,*%,:*#",
"$$-,31;#1,*#$,:,,,*%;*%%%7%%;*7;#X &%**&-##;<2=**=:&-71>*;;%,:**",
"$&,51&%%2:*#&12=;7*%;;;7;;%*7%;%OOOOX##X#@*13,::,,,&@1>:%*777,*%",
"*;>,&X%31;#$*,3$X##;;;;;**#77O;%%;;##%%##;1<<=*:*=,#O;;17*%;*,*#",
"&7,#O%::*#$$$=3, %%;;1%*%%;,;;*#777**<<X#=7$&;&&%%%%#%1,##*7#%%*",
"1:%@*72%##$$*<3=O;1>;;%,;7**7,&;7;7*=<<*#===*&**%;>;%#,;*%;*#%*;",
":%O@*7,##$#$&,,O ;%7;%*,;;%*;%#,7*#*==<<#%,,*&&&>;;>>%;7777;%77,",
"O%%%#*,7*==*17= %%%O##;;*%%7;%*7&%#*==<<&#*7:%&&%>>>%%#7;*%*%**%",
"O;>1&#*131>137;XO>>;;%;#*#,;**7:&$*=*==<,#*7&#*=>11%O%*%######X#",
";;>7:OO#&%%%%%+X ;7%%%;%*77%*,::$$*=*=,<7%%,=*:,7;*%,,;%*,;#%;*%",
"%;;>7%%;%#OXXXOO O%77%#%%7XX;77;$$&$*=<<:%&=,*:,1%;17;;,7;7%;,,%",
"%%-;>;%171;%->>>;OOOO77%7%XXX#77,=**==<<*#*77*,7%%11;,%#7;;*,7;;",
";%*21&<,;;,,;;2332>-%Oo%XX%###*7777%%;;7;@;;;777*;;;*%*%;**,;%%*",
"*;:3===&$$&1<;:,:,221-@@,*,77*#X%;7;77>;OO%@%%@;;;;%%%**;*,;*#%*",
";>1,=<&$#O+:2,=,:::6>+&-<,,777#X#7;77%%%O;>>;;;@;;;##%*;,*,;*%#*",
":1>&<<&$#$+$,3<::*:2*+>3<,,,#77X *77%OO7%7>;>;>;1,;%%%**,*,;**%*",
":<&*7<,&&&#+=3<====2:&33,***#*,7**%%;;%;>7 %;;>>11;##%%*,*;,****",
":2+,73,=**%$=::==:,2@$257***:7,,O%777>%7%;@%>>;%71;%#%*;,****;*%",
":2#*<7<,*&*===::::<:@@13;,,:,,;%%%*77>;;;;%;%%@%,1;%**;,;****;**",
"<2:#<7<,:*:::=22:$+++@@:7,,,7*#%77%%;;>>;%77>7 @1,,;;;;1;****;;;",
"::2&$122,==4<,3<+&:<7;*#*;7:%%77%*;%*7:>;;77%@OO%77;11111*%*****",
":,2:+&22,<<333<$$<62;77:*%%##7;;*#%*7:::%7;%@%;@O%%51*%,;***##*,",
"==:5;O,566421>&O,22,::,,77:*#%%#*;77:1:17%  %;771%O#%%;%;**##*,,",
"@@=22$$11:*$O+@:73****&*%;;77%%%7*7&::1:;OO7777;511% #;,,***#;,;",
":==:3:+$&@-:11@+<3=**#%&##;77#%7:>*;71;# O77777;>17>;X%1;;;*;,,*",
"=:@23@$:322:26>@*7,*%#%%%#%*7%O7;::7:*%#777%X;%7>>;15;XX**,,,,,,",
":::3:+:3:::*:2>+&7==***&&%*%*%7*7;:7; %77;;%;;>;;%171;; %%**;,<<",
":@3:+:2=====:>3@#7===&=;;&*&7##7;77,%O>77*77%%;;7%71%;55%###;,,*",
";7%-77;;%%;7%77@X7,*=*;;7**;>*%#;77%O7;77**:::;:;%>%,2;,>;-@OOO@",
"7;%;;;;;77%%;%O7 ,7,7:&7#:***7*XOO>%%77#====:*;:>;&&1,$$;:,111>>",
";#@7;-%;%%%;;;7% #77=,**&:*%%77%%O%%;7;%%=*=;;*,11;25*#$#$&;>>>>",
"7&@7;;7;;;;;%7;@%O#77,7%:**%#%*77OO%O#@;7=*$;::,1,;51%%&;$%&&:>5",
"7;X7;>;#>7%%7%O@7& %77*%;%*::=::O%;7>;OO*=**=,,,2-:2-&&#&$#$=,==",
"*7OO-;;;OOO@@O%;;7;O%77>7;7:*%%#%77*7;>>%*,,==,<5;21+-;*&&&=1,<=",
"&7*&;;%7-O;>OO;7;;7;O;:7*%##%==%;7*77>>>*$,<,=,,>-1-++*:***=====",
"*7&&>;;;@@%O %;%%%%7;O%&:**:=::#&77;*;%>,*=<,<<=>;;%*&$;==,,=&==",
"7*&%:::*%7#X7*7O%;*7%X7;>:;:1&%=7;;*;&;*7;%7*,77&:*&&&**=,1,:&&*",
"#7*%::**;7777%O7*%#,*#77;;&;;;=,*77;***,;;#=7<;%%:1=&&*,,1,*&$*=",
"*7##::&*77;77O#O%#&;X*7%;%&;%*2*%77%;;,;*7=*7%%#%*,=,1<2*2<&$===",
";*O&7,%7;77%#77X**7%#%7*;%&;&>1&&;7;*7,;#7<%=#%#=*$*=,=$&;,**::=",
"%*#*2:#*;77777;7>>;% 7;7;;&&=::=*77#%*;*%,7*777,77<232<<:-%:<::2",
"*:;#%%##@O 7O;O;%;%  %%*1,;&&===*%*O%%;%*%,:,*77,22<322451;&:,,:",
"171#%:,,7OOOO# O;;OO%XX#:,,*&$@=*;*%%%*%**,,*:,<<<==,==,255;-;:&",
"717*&23,%77 X7%777777O#XO$,:&$=@%*7%7%*;**,7:*%,<,<==**,*152;%&;",
":7:%*7@#%7*%7=77<422<$<3=+O&-:=-*$*;;,2,$#$=<:=&=*=1::==&:23&=<<",
",:%#%7%#O%%#777*2<<3<==34$O--@&=&*;:12,$+&===<<&#&1<<<:*@&23@=<2",
"*#%@&,&#+&&#*7======<,<33&@54:-$*;;;;%@++,4<==:2*=,<222===,3&=<<",
"*;1;&<=X#%=#*7=======43=2=@644<=**&-;;-332<<,=:<<*&&==,=&@:3&=:=",
"1<3;@>*X#%,#*7%%====<3<=:-$4:<2<2>;;12222,&=:2<:3,*&$===-$>4=-::",
",:1&@**##%7%7=**=+==::==:@:6<:::*:;%:363:=*&&::-,<3=&====-:4::<2",
"**,;%1:==,,$*7,,=======,2$:3::::,22;&:2<:&$-:-$-=<3<=====$=<:=-=",
"&:2&X11=*7*X*,*7=+===:,3:@33=<<::,52==,<=&*:=--:,=<<====$=:3<$O@",
"#77* *X XOX X%;72;*:&=2,->3:::2:**$>:$:2======-:31:621::==22=@=<",
"7%*;O;%#%*%#*#O%62::<33=-:::::*-*:26,@,3<===::::5>O&=:::=<2:=&::",
"%%7;#7%7,7*77%%%;552221&>1:&&::**&:6:=12<,====::2:oOoooo@==&@:<:",
";;;7O*7&*=%*#77#@15,:&@@@::*&:-$&*261&13<,====:<--@:>:>:@@@==:<<",
"7*,%X**#&**#%77#O#;#%;+-@%--***:,222@@<44<==::>1>>:->>>>1>-:=:<2",
",7,=7;*7*&;***%7*#*$>3&:2>@+$::22:*$+@:32<==::::-::-23531<:::><<",
"<=<<7**77*<7**7*2<1:;:-:2>-&:1:;$*,=&$&32<::<<:=@---<2::222<=,:=",
"<7<,%77*7***#*7;1,&#+#:32:-:11:,;*&&=@@<2<::331@@->@::::::==--=,"
};
