/* XPM */
static char *toxic_waste[] = {
/* columns rows colors chars-per-pixel */
"64 64 132 2 ",
"   c #56573F",
".  c #57583F",
"X  c #59593E",
"o  c #58583F",
"O  c #5B5A3E",
"+  c #5E5C3D",
"@  c #5F5D3D",
"#  c #615E3C",
"$  c #67623A",
"%  c #67623B",
"&  c #69633A",
"*  c #6B6539",
"=  c #6A643A",
"-  c #6B643A",
";  c #6D6639",
":  c #6F6738",
">  c #6E6639",
",  c #6E6739",
"<  c #736A37",
"1  c #746A37",
"2  c #756B37",
"3  c #766C36",
"4  c #706838",
"5  c #716838",
"6  c #7D7134",
"7  c #7E7134",
"8  c #7E7234",
"9  c #2A3A4B",
"0  c #2B3A4B",
"q  c #2C3B4B",
"w  c #2D3B4B",
"e  c #2D3C4B",
"r  c #2E3C4A",
"t  c #2F3D4A",
"y  c #28384C",
"u  c #29394C",
"i  c #2A394C",
"p  c #313E49",
"a  c #323F49",
"s  c #333F49",
"d  c #394347",
"f  c #3A4447",
"g  c #3C4546",
"h  c #3D4646",
"j  c #3E4746",
"k  c #334049",
"l  c #354148",
"z  c #364148",
"x  c #384348",
"c  c #474D43",
"v  c #414945",
"b  c #424945",
"n  c #434A45",
"m  c #444B44",
"M  c #454B44",
"N  c #464C44",
"B  c #484D43",
"V  c #494E43",
"C  c #4B4F42",
"Z  c #4D5042",
"A  c #4D5142",
"S  c #505341",
"D  c #515341",
"F  c #535540",
"G  c #545640",
"H  c #927E2F",
"J  c #817433",
"K  c #837533",
"L  c #847533",
"P  c #857632",
"I  c #867732",
"U  c #887831",
"Y  c #8A7931",
"T  c #8B7A31",
"R  c #A48B2A",
"E  c #A88E28",
"W  c #AA8F28",
"Q  c #AE9127",
"!  c #AF9227",
"~  c #AC9028",
"^  c #B29426",
"/  c #B59625",
"(  c #B79724",
")  c #BC9A23",
"_  c #BC9B23",
"`  c #BD9B23",
"'  c #BF9C22",
"]  c #B89824",
"[  c #BA9924",
"{  c #C99B1B",
"}  c #C99C1B",
"|  c #CD9F1A",
" . c #C99B1C",
".. c #CBA51F",
"X. c #CCA61E",
"o. c #CEA71E",
"O. c #CFA71E",
"+. c #D0A81D",
"@. c #D1A91D",
"#. c #D2A91D",
"$. c #D3AA1D",
"%. c #D4AB1C",
"&. c #D5AB1C",
"*. c #D6AC1C",
"=. c #D7AD1C",
"-. c #D9AE1B",
";. c #DDAD18",
":. c #DFAF18",
">. c #DFB219",
",. c #DCB01A",
"<. c #DDB11A",
"1. c #E6B617",
"2. c #E7B717",
"3. c #E9B916",
"4. c #E8B817",
"5. c #E9B817",
"6. c #EAB916",
"7. c #EBBA16",
"8. c #E0B219",
"9. c #E0B319",
"0. c #E3B418",
"q. c #E3B518",
"w. c #E2B419",
"e. c #E4B518",
"r. c #E5B618",
"t. c #C39F21",
"y. c #C19E22",
"u. c #C6A120",
"i. c #C7A220",
"p. c #C8A320",
"a. c #C9A320",
"s. c None",
/* pixels */
"s.s.s.s.s.s.s.s.{ { { { { { { { { { { { { { { { { { { { { { { { { { { { { { { { { { { { { { { { { { { { { { { { s.s.s.s.s.s.s.s.",
"s.s.s.s.s.s.s.{ { { { { { { { { { { { { { { { { { { { { { { { { { { { { { { { { { { { { { { { { { { { { { { { { { s.s.s.s.s.s.s.",
"s.s.s.s.s.s.s.{ { { { { { { { { { { { { { { { { { { { { { { { { { { { { { { { { { { { { { { { { { { { { { { { { { s.s.s.s.s.s.s.",
"s.s.s.s.s.s.s.{ { { { { { { { { { { { { { { { { { { { { { { { { { { { { { { { { { { { { { { { { { { { { { { { { | s.s.s.s.s.s.s.",
"s.s.s.s.s.s.s.s.s.s.;.;.;.;.;.;.;.;.;.;.;.;.;.:.;.;.;.;.;.;.;.;.;.;.;.;.;.;.;.;.;.;.;.;.;.;.;.;.;.;.;.;.;.;.s.s.s.s.s.s.s.s.s.s.",
"s.s.s.s.s.s.s.s.s.s.7.7.7.7.7.7.7.7.7.7.7.7.7.7.7.7.7.7.7.7.7.7.7.7.7.7.7.7.7.7.7.7.7.7.7.7.7.7.7.7.7.7.7.7.s.s.s.s.s.s.s.s.s.s.",
"s.s.s.s.s.s.s.s.s.s.7.7.7.7.7.7.7.7.7.7.7.7.7.7.7.7.7.7.7.7.7.7.7.7.7.7.7.7.7.7.7.7.7.7.7.7.7.7.7.7.7.7.7.7.s.s.s.s.s.s.s.s.s.s.",
"s.s.s.s.s.s.s.s.s.s.7.7.7.7.7.7.7.7.7.7.7.7.7.7.7.7.7.7.7.7.7.7.7.7.7.7.7.7.7.7.7.7.7.7.7.7.7.7.7.7.7.7.7.7.s.s.s.s.s.s.s.s.s.s.",
"s.s.s.s.s.s.s.s.s.s.7.7.7.7.7.7.7.7.7.7.7.7.7.7.7.7.7.7.7.7.7.7.7.7.7.7.7.7.7.7.7.7.7.7.7.7.7.7.7.7.7.7.7.7.s.s.s.s.s.s.s.s.s.s.",
"s.s.s.s.s.s.s.s.s.s.7.7.7.7.7.7.7.7.7.7.7.7.7.7.7.7.7.7.7.7.7.7.7.7.7.7.7.7.7.7.7.7.7.7.7.7.7.7.7.7.7.7.7.7.s.s.s.s.s.s.s.s.s.s.",
"s.s.s.s.s.s.s.s.s.s.7.7.7.7.7.7.7.7.7.7.7.7.7.7.7.7.7.7.7.7.7.7.7.7.7.7.7.7.7.7.7.7.7.7.7.7.7.7.7.7.7.7.7.7.s.s.s.s.s.s.s.s.s.s.",
"s.s.s.s.s.s.s.s.s.s.7.7.7.7.7.7.7.7.7.7.7.7.7.7.7.7.7.7.7.7.7.7.7.7.7.7.7.7.7.7.7.7.7.7.7.7.7.7.7.7.7.7.7.7.s.s.s.s.s.s.s.s.s.s.",
"s.s.s.s.s.s. .{ { { | | | | | | | | | | | | | | | | | | | | | | | | | | | | | | | | | | | | | | | | | | | | { { { { s.s.s.s.s.s.",
"s.s.s.s.s.s.{ { { { { { { { { { { { { { { { { { { { { { { { { { { { { { { { { { { { { { { { { { { { { { { { { { {  .s.s.s.s.s.s.",
"s.s.s.s.s.s.s.s.s.s.:.:.:.:.;.8.:.:.:.:.:.:.:.:.:.:.:.:.:.:.:.:.:.:.:.:.:.:.:.:.:.:.:.:.:.:.:.:.:.:.:.:.;.8.s.s.s.s.s.s.s.s.s.s.",
"s.s.s.s.s.s.s.s.s.s.7.7.7.7.7.7.7.7.7.7.7.7.7.7.7.7.7.7.7.7.7.7.7.7.7.7.7.7.7.7.7.7.7.7.7.7.7.7.7.7.7.7.7.7.s.s.s.s.s.s.s.s.s.s.",
"s.s.s.s.s.s.s.s.s.s.7.7.7.7.7.7.7.7.7.7.7.7.7.7.7.7.7.7.7.7.7.7.7.7.7.7.7.7.7.7.7.7.7.7.7.7.7.7.7.7.7.7.7.7.s.s.s.s.s.s.s.s.s.s.",
"s.s.s.s.s.s.s.s.s.s.7.7.7.7.7.7.7.7.7.7.7.7.7.7.7.7.7.>.7.7.7.7.7.7.7.7.8.7.7.7.7.7.7.7.7.7.7.7.7.7.7.7.7.7.s.s.s.s.s.s.s.s.s.s.",
"s.s.s.s.s.s.s.s.s.s.7.7.7.7.7.7.7.7.7.7.7.7.7.7.4.$.P 2.7.7.7.7.7.7.7.7.e.P *.7.7.7.7.7.7.7.7.7.7.7.7.7.7.7.s.s.s.s.s.s.s.s.s.s.",
"s.s.s.s.s.s.s.s.s.s.7.7.7.7.7.7.7.7.7.7.7.7.7.7...V 0.7.7.7.7.7.7.7.7.7.7.>.c a.7.7.7.7.7.7.7.7.7.7.7.7.7.7.s.s.s.s.s.s.s.s.s.s.",
"s.s.s.s.s.s.s.s.s.s.7.7.7.7.7.7.7.7.7.7.7.7.7.X.p @ 7.7.7.7.7.7.7.7.7.7.7.7.. p #.7.7.7.7.7.7.7.7.7.7.7.7.7.s.s.s.s.s.s.s.s.s.s.",
"s.s.s.s.s.s.s.s.s.s.7.7.7.7.7.7.7.7.7.7.7.7.7.# y P 7.7.7.7.7.7.7.7.7.7.7.7.8 i $ 7.7.7.7.7.7.7.7.7.7.7.7.7.s.s.s.s.s.s.s.s.s.s.",
"s.s.s.s.s.s.s.s.s.s.7.7.7.7.7.7.7.7.7.7.7.7.e.i y : 7.7.7.7.7.7.7.7.7.7.7.7.& y 0 7.7.7.7.7.7.7.7.7.7.7.7.7.s.s.s.s.s.s.s.s.s.s.",
"s.s.s.s.s.s.s.s.s.s.7.7.7.7.7.7.7.7.7.7.7.7.y.i y V 7.7.7.7.7.7.7.7.7.7.7.7.n y y ..7.7.7.7.7.7.7.7.7.7.7.7.s.s.s.s.s.s.s.s.s.s.",
"s.s.s.s.s.s.s.s.s.s.7.7.7.7.7.7.7.7.7.7.7.7.X.i y 0 i.7.7.7.7.7.7.7.7.7.7.u.y y i -.7.7.7.7.7.7.7.7.7.7.7.7.s.s.s.s.s.s.s.s.s.s.",
"s.s.s.s.s.s.s.s.s.s.7.7.7.7.7.7.7.7.7.7.7.7.7.s y y Z 2.7.7.7.7.7.7.7.7.e.Z y y x 7.7.7.7.7.7.7.7.7.7.7.7.7.s.s.s.s.s.s.s.s.s.s.",
"s.s.s.s.s.s.s.s.s.s.7.7.7.7.7.7.7.7.7.7.7.7.7.4 y y y , 8.7.7.7.7.7.7.8.= y y y 3 7.7.7.7.7.7.7.7.7.7.7.7.7.s.s.s.s.s.s.s.s.s.s.",
"s.s.s.s.s.s.s.s.s.s.7.7.7.7.7.7.7.7.7.7.7.7.7.*.t y y y n Q >.7.7.>.~ g y y y t -.7.7.7.7.7.7.7.7.7.7.7.7.7.s.s.s.s.s.s.s.s.s.s.",
"s.s.s.s.s.s.s.s.s.s.7.7.7.7.7.7.7.7.7.7.7.7.7.7.K i y y y y i n n y y y y y y Y 7.7.7.7.7.7.7.7.7.7.7.7.7.7.s.s.s.s.s.s.s.s.s.s.",
"s.s.s.s.s.s.s.s.s.s.7.7.7.7.7.7.7.7.7.7.( J F 0 y y y y y y y y y y y y y y y y w G K [ 7.7.7.7.7.7.7.7.7.7.s.s.s.s.s.s.s.s.s.s.",
"s.s.s.s.s.s.s.s.s.s.7.7.7.7.7.7.7.7.X.  i y y y y y y y y y y y y y y y y y y y y y y y X #.7.7.7.7.7.7.7.7.s.s.s.s.s.s.s.s.s.s.",
"s.s.s.s.s.s.s.s.s.s.7.7.7.7.7.7.7.i.f i y y y y y y y y y y y y y y y y y y y y y y y y y g X.7.7.7.7.7.7.7.s.s.s.s.s.s.s.s.s.s.",
"s.s.s.s.s.s.s.s.s.s.7.7.7.7.7.7.4.A y 0 A $ . p y y y y y y y y y y y y y y y y p X $ Z i y Z 7.7.7.7.7.7.7.s.s.s.s.s.s.s.s.s.s.",
"s.s.s.s.s.s.s.s.s.s.7.7.7.7.7.7.R y < #.7.7.7.7._ m y y y y y y y y y y y y N ' 7.7.7.7.#.4 y ~ 7.7.7.7.7.7.s.s.s.s.s.s.s.s.s.s.",
"s.s.s.s.s.s.s.s.s.s.7.7.7.7.7.7., < 7.7.7.7.7.7.7.0.= y y y y y y y y y i 4 e.7.7.7.7.7.7.7.4 < 7.7.7.7.7.7.s.s.s.s.s.s.s.s.s.s.",
"s.s.s.s.s.s.s.s.s.s.7.7.7.7.7.7.K 7.7.7.7.7.7.7.7.7.8.n y y y y y y y y N r.7.7.7.7.7.7.7.7.2.K 7.7.7.7.7.7.s.s.s.s.s.s.s.s.s.s.",
"s.s.s.s.s.s.s.s.s.s.7.7.7.7.7.7.2.7.7.7.7.7.7.7.7.7.7.( y y y y y y y i _ 7.7.7.7.7.7.7.7.7.7.2.7.7.7.7.7.7.s.s.s.s.s.s.s.s.s.s.",
"s.s.s.s.s.s.s.s.s.s.7.7.7.7.7.7.7.7.7.7.7.7.7.7.7.7.7.4.t y y y y y y k 7.7.7.7.7.7.7.7.7.7.7.7.7.7.7.7.7.7.s.s.s.s.s.s.s.s.s.s.",
"s.s.s.s.s.s.s.s.s.s.7.7.7.7.7.7.7.7.7.7.7.7.7.7.7.7.7.7.Z 0 y y y y y X 7.7.7.7.7.7.7.7.7.7.7.7.7.7.7.7.7.7.s.s.s.s.s.s.s.s.s.s.",
"s.s.s.s.s.s.s.s.s.s.7.7.7.7.7.7.7.7.7.7.7.7.7.7.7.7.7.7.@ y y y y y y % 7.7.7.7.7.7.7.7.7.7.7.7.7.7.7.7.7.7.s.s.s.s.s.s.s.s.s.s.",
"s.s.s.s.s.s.s.s.s.s.7.7.7.7.7.7.7.7.7.7.7.7.7.7.7.7.7.7.x y y y y y y n 7.7.7.7.7.7.7.7.7.7.7.7.7.7.7.7.7.7.s.s.s.s.s.s.s.s.s.s.",
"s.s.s.s.s.s.s.s.s.s.7.7.7.7.7.7.7.7.7.7.7.7.7.7.7.7.7.#.y y 0 g k 0 y y -.7.7.7.7.7.7.7.7.7.7.7.7.7.7.7.7.7.s.s.s.s.s.s.s.s.s.s.",
"s.s.s.s.s.s.s.s.s.s.7.7.7.7.7.7.7.7.7.7.7.7.7.7.7.7.7.= y y y H P 0 y y 4 7.7.7.7.7.7.7.7.7.7.7.7.7.7.7.7.7.s.s.s.s.s.s.s.s.s.s.",
"s.s.s.s.s.s.s.s.s.s.7.7.7.7.7.7.7.7.7.7.7.7.7.7.7.7.~ y y y x >.>.k y y i Q 7.7.7.7.7.7.7.7.7.7.7.7.7.7.7.7.s.s.s.s.s.s.s.s.s.s.",
"s.s.s.s.s.s.s.s.s.s.7.7.7.7.7.7.7.7.7.7.7.7.7.7.r.I 9 y y z ..7.7.y.k 0 y 0 Y 4.7.7.7.7.7.7.7.7.7.7.7.7.7.7.s.s.s.s.s.s.s.s.s.s.",
"s.s.s.s.s.s.s.s.s.s.7.7.7.7.7.7.7.7.7.7.7.7.Q 6 N y i 9 5 X.4.7.7.7.X., 0 y y N 8 ( 7.7.7.7.7.7.7.7.7.7.7.7.s.s.s.s.s.s.s.s.s.s.",
"s.s.s.s.s.s.s.s.s.s.7.7.7.7.7.7.7.7.7.7.7.7.7.$. ./ y.0.7.7.7.7.7.7.7.7.8.' ( i.#.7.7.7.7.7.7.7.7.7.7.7.7.7.s.s.s.s.s.s.s.s.s.s.",
"s.s.s.s.s.s.s.s.s.s.7.7.7.7.7.7.7.7.7.7.7.7.7.7.7.7.7.7.7.7.7.7.7.7.7.7.7.7.7.7.7.7.7.7.7.7.7.7.7.7.7.7.7.7.s.s.s.s.s.s.s.s.s.s.",
"s.s.s.s.s.s.s.s.s.s.7.7.7.7.7.7.7.7.7.7.7.7.7.7.7.7.7.7.7.7.7.7.7.7.7.7.7.7.7.7.7.7.7.7.7.7.7.7.7.7.7.7.7.7.s.s.s.s.s.s.s.s.s.s.",
"s.s.s.s.s.s.s.s.s.s.8.;.:.:.:.:.:.:.:.:.:.:.:.:.:.:.:.:.:.:.:.:.:.:.:.:.:.:.:.:.:.:.:.:.:.:.8.;.>.:.:.:.;.;.s.s.s.s.s.s.s.s.s.s.",
"s.s.s.s.s.s.{ { { { { { { { { { { { { { { { { { { { { { { { { { { { { { { { { { { { { { { { { { { { { {  .{ { { | { s.s.s.s.s.s.",
"s.s.s.s.s.s. .{ { { | | | | | | | | | | | | | | | | | | | | | | | | | | | | | | | | | | | | | | | | | | | | | {  .{ s.s.s.s.s.s.",
"s.s.s.s.s.s.s.s.s.s.7.7.7.7.7.7.7.7.7.7.7.7.7.7.7.7.7.7.7.7.7.7.7.7.7.7.7.7.7.7.7.7.7.7.7.7.7.7.7.7.7.7.7.7.s.s.s.s.s.s.s.s.s.s.",
"s.s.s.s.s.s.s.s.s.s.7.7.7.7.7.7.7.7.7.7.7.7.7.7.7.7.7.7.7.7.7.7.7.7.7.7.7.7.7.7.7.7.7.7.7.7.7.7.7.7.7.7.7.7.s.s.s.s.s.s.s.s.s.s.",
"s.s.s.s.s.s.s.s.s.s.7.7.7.7.7.7.7.7.7.7.7.7.7.7.7.7.7.7.7.7.7.7.7.7.7.7.7.7.7.7.7.7.7.7.7.7.7.7.7.7.7.7.7.7.s.s.s.s.s.s.s.s.s.s.",
"s.s.s.s.s.s.s.s.s.s.7.7.7.7.7.7.7.7.7.7.7.7.7.7.7.7.7.7.7.7.7.7.7.7.7.7.7.7.7.7.7.7.7.7.7.7.7.7.7.7.7.7.7.7.s.s.s.s.s.s.s.s.s.s.",
"s.s.s.s.s.s.s.s.s.s.7.7.7.7.7.7.7.7.7.7.7.7.7.7.7.7.7.7.7.7.7.7.7.7.7.7.7.7.7.7.7.7.7.7.7.7.7.7.7.7.7.7.7.7.s.s.s.s.s.s.s.s.s.s.",
"s.s.s.s.s.s.s.s.s.s.7.7.7.7.7.7.7.7.7.7.7.7.7.7.7.7.7.7.7.7.7.7.7.7.7.7.7.7.7.7.7.7.7.7.7.7.7.7.7.7.7.7.7.7.s.s.s.s.s.s.s.s.s.s.",
"s.s.s.s.s.s.s.s.s.s.7.7.7.7.7.7.7.7.7.7.7.7.7.7.7.7.7.7.7.7.7.7.7.7.7.7.7.7.7.7.7.7.7.7.7.7.7.7.7.7.7.7.7.7.s.s.s.s.s.s.s.s.s.s.",
"s.s.s.s.s.s.s.s.s.s.;.;.;.;.;.;.;.;.;.;.;.;.;.;.;.;.;.;.;.;.;.;.:.;.;.;.;.;.;.;.;.;.;.;.;.;.;.;.;.;.;.;.;.;.s.s.s.s.s.s.s.s.s.s.",
"s.s.s.s.s.s.s.{ { { { { { { { { { { { { { { { { { { { { { { { { { { { { { { { { { { { { { { { { { { { { { { { { | s.s.s.s.s.s.s.",
"s.s.s.s.s.s.s.{ { { { { { { { { { { { { { { { { { { { { { { { { { { { { { { { { { { { { { { { { { { { { { { { {  .s.s.s.s.s.s.s.",
"s.s.s.s.s.s.s.{ { { { { { { { { { { { { { { { { { { { { { { { { { { { { { { { { { { { { { { { { { { { { { { { { { s.s.s.s.s.s.s.",
"s.s.s.s.s.s.s.s.{ { { { { { { { { { { { { { { { { { { { { { { { { { { { { { { { { { { { { { { { { { { { { { { { s.s.s.s.s.s.s.s."
};
