/* XPM */
static char *e7d5a4cbdaa34f90c806acb59291787bc8MQejDqCH7NMgBY[] = {
/* columns rows colors chars-per-pixel */
"64 64 2 1 ",
"  c None",
". c black",
/* pixels */
"                             ......                             ",
"                         ..............                         ",
"                      ........    ........                      ",
"                     .....            .....                     ",
"                   ....                 .....                   ",
"                  ...                     ....                  ",
"                 ...           ..           ...                 ",
"                 ..       ............       ..                 ",
"                ..      ................     ...                ",
"               ...    .....          .....    ...               ",
"               ..    ...               ....    ..               ",
"               ..   ...                  ...   ..               ",
"              ..   ...                    ...  ...              ",
"              ..   ..                      ..   ..              ",
"              ..   ..  ......      .....   ..   ..              ",
"              ..  ..   .......    .......   ..  ..              ",
"              ..  ..   ..   ...  ...   ..   ..  ..              ",
"              ..  ..   ...   ..  ..   ...   ..  ..              ",
"              ..   .    .......  .......   ..   ..              ",
"              ..   ..    .....    .....    ..  ...              ",
"              ...  ...                    ...  ...              ",
"               ..   ...                  ...   ..               ",
"               ..   .....              .....   ..               ",
"               ...    ....................    ...               ",
"                ..      ................     ...                ",
"                ....           ..           ....                ",
"                ......                    ......                ",
"                .............      .............                ",
"                ...  ......................  ...                ",
"               ....       ............       ....               ",
"               ....                          ....               ",
"              .....                          .....              ",
"              .. ..                          .. ..              ",
"              .. ..                 ...      .. ..              ",
"             ..  ..                ......   ... ..              ",
"             ..  ...              ...  ..   ..   ..             ",
"             ..   ..              ..   ..   ..   ..             ",
"             ..   ..              ...  ..   ..   ..             ",
"             ..   ..               ......   ..   ..             ",
"             ..   ..               .....   ...   ..             ",
"             ..   ...                      ..    ..             ",
"             ..    ..                      ..    ..             ",
"             ..    ..                      ..    ..             ",
"             ..    ..                     ...    ..             ",
"             ..    ...                    ..     ..             ",
"             ..     ..                    ..     ..             ",
"             ..     ..                    ..    ...             ",
"              ..   ....                  ....   ..              ",
"              ..   ....                  ....   ..              ",
"              ..   ....                  ....   ..              ",
"               .. ......                ...... ..               ",
"               .....  ..                ..  .....               ",
"                ...   ..               ...   ...                ",
"                       ..              ..                       ",
"                       ..              ..                       ",
"                       ...            ...                       ",
"                        ..           ...                        ",
"                        ...          ...                        ",
"                         ...        ...                         ",
"                          ..        ..                          ",
"                          ...      ...                          ",
"                           ...    ...                           ",
"                            ........                            ",
"                              ....                              "
};
