/* XPM */
static char *_89328a9ef0c4101e5b78e0a08e33b3evh4Y6kz68jr8QSwA[] = {
/* columns rows colors chars-per-pixel */
"64 64 139 2 ",
"   c None",
".  c #2C2F38",
"X  c #2C3039",
"o  c #2D3039",
"O  c #2C303A",
"+  c #2C313B",
"@  c #2C323B",
"#  c #2C323C",
"$  c #2C333D",
"%  c #30333C",
"&  c #31343C",
"*  c #2C3E4B",
"=  c #363941",
"-  c #383B44",
";  c #2C404D",
":  c #3D4049",
">  c #2D4C5C",
",  c #2D4E5E",
"<  c #2D4F5F",
"1  c #2D5364",
"2  c #2D6176",
"3  c #2D6479",
"4  c #2D657A",
"5  c #2D677C",
"6  c #43464E",
"7  c #44474F",
"8  c #4C4F56",
"9  c #4C5057",
"0  c #4F535A",
"q  c #575A61",
"w  c #686C72",
"e  c #696C73",
"r  c #6C6F76",
"t  c #6E7177",
"y  c #71757B",
"u  c #74777D",
"i  c #74787E",
"p  c #75787E",
"a  c #2D6B81",
"s  c #2E6C83",
"d  c #2E6D84",
"f  c #2E6F86",
"g  c #2E7088",
"h  c #2E728A",
"j  c #2E758D",
"k  c #2E7992",
"l  c #7A7D83",
"z  c #7C7F85",
"x  c #2E88A5",
"c  c #2E89A6",
"v  c #2E90AF",
"b  c #2E91B0",
"n  c #2E93B2",
"m  c #2F95B4",
"M  c #7E8187",
"N  c #7ED09E",
"B  c #7FD09F",
"V  c #2FA8CB",
"C  c #2FA8CC",
"Z  c #82858B",
"A  c #83878C",
"S  c #86898E",
"D  c #868A8F",
"F  c #878B90",
"G  c #8C8F94",
"H  c #979A9F",
"J  c #989CA0",
"K  c #999DA1",
"L  c #9B9EA3",
"P  c #A2A6AA",
"I  c #A7AAAE",
"U  c #B1B5B8",
"Y  c #80D19F",
"T  c #82D1A1",
"R  c #A4DBBB",
"E  c #A8DCBE",
"W  c #A9DDBF",
"Q  c #AFDEC3",
"!  c #B1DFC4",
"~  c #B6E0C8",
"^  c #B7E1C9",
"/  c #B9E1CB",
"(  c #C3C7CA",
")  c #C4C8CB",
"_  c #C9CDD0",
"`  c #CACED0",
"'  c #CBCFD1",
"]  c #CCCFD2",
"[  c #D8DCDD",
"{  c #D8DCDE",
"}  c #D9DDDF",
"|  c #D2E8DD",
" . c #DBDFE1",
".. c #DCE0E2",
"X. c #DDE1E2",
"o. c #DFE3E5",
"O. c #D5E9E0",
"+. c #D6EAE0",
"@. c #DBEBE4",
"#. c #DDECE6",
"$. c #E5E7E7",
"%. c #E3E7E8",
"&. c #E5E7E8",
"*. c #E5E7E9",
"=. c #E6E6E8",
"-. c #E6E7E8",
";. c #E7E7E8",
":. c #E6E7E9",
">. c #E7E7E9",
",. c #E4E8E9",
"<. c #E6E8E8",
"1. c #E6E8E9",
"2. c #E7E8E9",
"3. c #E7E9EA",
"4. c #E1EDE9",
"5. c #E3EDEA",
"6. c #E4EEEB",
"7. c #E8EAEB",
"8. c #E8EAEC",
"9. c #E8EBEC",
"0. c #E8ECED",
"q. c #E9ECED",
"w. c #EAECED",
"e. c #E9EDEE",
"r. c #EAEDEE",
"t. c #EAEEEF",
"y. c #EAEEF0",
"u. c #EBEFF0",
"i. c #ECEFF1",
"p. c #EBF0F1",
"a. c #EBF1F1",
"s. c #ECF0F0",
"d. c #EDF0F0",
"f. c #ECF0F1",
"g. c #EDF0F1",
"h. c #ECF1F1",
"j. c #EDF1F1",
"k. c #ECF0F2",
"l. c #EDF0F2",
/* pixels */
"                                                          h.i.h.i.h.h.                                                          ",
"                                                  h.i.h.i.h.h.i.i.h.i.h.h.i.h.                                                  ",
"                                            h.i.h.i.h.i.h.i.h.i.h.i.h.i.i.h.i.h.i.h.                                            ",
"                                          h.i.h.i.h.i.h.i.h.i.h.i.h.i.h.h.i.h.i.h.i.h.                                          ",
"                                        h.i.h.i.h.i.i.h.i.h.h.i.h.i.h.h.i.h.i.h.h.i.h.i.                                        ",
"                                    h.i.i.h.i.h.i.h.h.i.h.i.i.h.i.h.i.h.h.i.h.i.i.h.i.h.h.p.                                    ",
"                                    h.i.h.i.h.i.h.h.i.h.i.,.] U U ] ,.h.h.i.i.h.h.i.h.i.h.i.                                    ",
"                                  h.i.h.i.h.i.h.i.} F q : . . . . . o - q D } i.i.h.i.h.i.h.h.                                  ",
"                                i.h.i.h.i.h.i.] i & . . . . . . . . . . . . & u _ h.i.h.i.h.i.h.                                ",
"                                h.i.h.i.i.u.l . . . . . . . . . . . . . . . . . . u i.i.h.i.h.i.                                ",
"                              h.i.h.i.h.u.y . . . . . . . . . . . . . . . . . . . . r e.u.h.i.h.p.                              ",
"                              h.h.i.h.e.t . . . . . . . . . . . . . . . . . . . . . . w e.i.h.i.h.                              ",
"                              h.i.h.i.K . . . . . . . . . . . . . . . . . . . . . . . . J i.i.h.i.                              ",
"                              i.h.i.h.7 . . . . . . . . . . . . . . . . . . . . . . . . 6 i.h.i.h.                              ",
"                            h.i.i.h. .. . . . . f b c f $ . . . . . . o f x v g . . . . . } u.h.i.h.                            ",
"                            i.h.h.i._ . . . . 2 V C C V m ; . . . . * m C C C C 4 . . . . ) h.i.h.i.                            ",
"                            h.i.h.i.o.. . . . < C C C C C s . . . . 5 C C C C C 1 . . . .  .h.i.i.h.                            ",
"                            i.h.i.h.i.9 . . . # g C C C C g . . . . s C C C V j # . . . 8 h.i.h.h.i.                            ",
"                              i.h.i.h.I . . . . . > g k 4 . . . . . . 4 k g > o . . . . P h.h.i.h.                              ",
"                              h.i.h.i.h.Z . . . . . . . X . . . . . . . . . . . . . . z u.i.i.h.i.                              ",
"                              i.h.i.h.i.i.Z o o . . . . . . . . . . . . . . . . . . M i.h.i.h.i.h.                              ",
"                              h.i.h.i.h.h.i.G & . . . . . . . . . . . . . . . . & F i.h.i.h.i.h.h.                              ",
"                                h.i.h.i.h.i.p.} F - . . . . . . . . . . . . - D } i.h.i.h.i.h.i.                                ",
"                                i.h.i.h.i.h.i.h.i.%.K e 0 = . . . . = 0 e H %.h.u.h.i.h.i.h.i.h.                                ",
"                                  i.h.i.i.h.i.h.i.h.i.h.i.h.X.( ( X.h.i.h.i.h.i.i.h.i.h.i.h.i.                                  ",
"                                  h.i.h.h.i.h.i.h.i.h.i.h.i.i.h.i.h.i.h.i.h.i.h.h.i.h.i.h.i.h.                                  ",
"                                  i.h.i.i.h.i.h.i.h.i.h.i.h.i.h.h.i.h.i.h.i.h.i.i.h.i.h.i.h.i.                                  ",
"                                  h.i.h.h.i.h.i.h.i.h.i.h.i.h.i.i.h.i.h.i.h.i.h.h.i.h.i.h.i.h.                                  ",
"                                  h.i.h.i.h.i.h.i.h.i.h.i.h.i.h.h.i.h.i.h.i.h.i.i.h.i.h.i.h.h.                                  ",
"                                ;.u.h.i.h.i.h.i.h.i.h.i.h.i.h.i.i.h.i.h.i.h.i.h.h.i.h.i.h.i.u.;.                                ",
"                              ;.;.e.u.h.i.h.i.h.i.h.i.h.i.h.i.h.h.i.h.i.h.i.h.i.i.h.i.h.i.h.e.;.;.                              ",
"                              ;.;.0.h.i.h.i.h.i.h.i.h.i.h.i.h.i.i.h.i.h.i.h.i.h.h.i.h.i.h.i.e.;.;.                              ",
"                            ,.%.$.0.i.h.h.i.h.i.h.i.h.i.h.i.h.i.h.i.i.h.i.h.i.h.i.h.i.h.i.h.7.;.;.,.                            ",
"                            $.;.;.0.h.i.i.h.i.h.i.h.i.h.i.h.i.h.i.h.h.i.h.i.h.i.h.i.h.i.h.i.,.;.;.;.                            ",
"                            ;.;.;.;.i.h.h.i.h.i.h.i.h.i.h.i.h.i.h.i.h.h.@.Q W O.i.h.h.i.i.i.,.;.;.;.                            ",
"                            %.;.;.;.u.h.i.h.i.h.i.h.i.h.i.h.i.h.i.h.i.4.Y N N N | h.i.h.h.u.;.;.;.;.                            ",
"                            ;.;.%.;.0.u.h.i.h.i.h.i.h.i.h.i.h.i.i.h.i./ N N N N R i.h.i.h.e.;.;.;.%.                            ",
"                          ;.;.;.;.;.8.u.i.h.i.h.i.h.i.h.i.h.i.h.h.i.h./ N N N N W i.i.h.i.e.%.;.;.;.,.                          ",
"                          ,.;.;.;.;.8.i.h.i.h.i.h.i.h.i.h.i.h.i.i.h.i.6.T N N N O.h.i.h.h.7.;.%.;.;.;.                          ",
"                          ;.%.;.;.;.;.h.i.h.i.h.i.h.i.h.i.h.i.h.h.i.h.i.4.^ ! #.h.i.h.i.h.;.;.;.%.;.;.                          ",
"                          ;.;.%.;.%.;.u.i.h.i.h.h.i.h.i.h.i.h.i.i.h.i.h.i.h.i.h.i.h.i.h.u.;.;.%.;.;.;.                          ",
"                          ;.;.;.;.;.;.e.h.i.h.i.i.h.i.h.i.h.i.h.h.i.h.i.h.i.h.i.h.i.h.i.e.;.;.;.;.;.;.                          ",
"                          ,.;.;.;.;.;.8.i.h.i.h.h.i.h.i.h.i.h.i.i.h.i.h.i.h.i.h.i.h.i.h.7.;.;.;.;.;.;.                          ",
"                          ;.;.;.%.;.%.,.h.i.h.i.i.h.i.h.i.h.i.h.h.i.h.i.h.i.h.i.h.i.h.i.,.;.%.;.%.;.,.                          ",
"                          ;.;.;.;.;.;.;.u.h.i.h.h.i.h.i.h.i.h.i.i.h.i.h.i.h.i.h.i.h.h.t.;.;.;.%.;.%.;.                          ",
"                            %.;.%.;.%.;.8.h.h.i.i.h.i.h.i.h.i.h.h.i.h.i.h.i.h.i.h.i.i.e.;.;.;.;.;.;.                            ",
"                            ;.%.;.;.;.;.8.h.i.h.h.i.h.i.h.i.h.i.i.h.i.h.i.h.i.h.i.h.i.8.;.%.;.%.;.;.                            ",
"                            ;.;.%.;.;.;.  i.h.i.i.h.i.h.i.h.i.h.h.i.h.i.h.i.h.i.h.i.h.  ;.;.;.;.;.;.                            ",
"                            ;.;.;.%.;.%.  p.h.i.h.i.h.i.h.i.h.i.h.i.h.i.h.i.h.i.i.h.h.  ;.;.;.;.;.;.                            ",
"                            ,.;.;.;.;.;.    i.h.i.h.i.h.i.h.i.h.i.h.i.h.i.h.i.h.h.h.    ;.;.%.;.%.,.                            ",
"                              ;.;.%.;.      h.i.h.i.h.i.h.i.h.i.h.i.h.i.h.i.h.i.i.h.      ;.;.%.;.                              ",
"                              ;.;.;.;.      i.h.i.h.i.h.i.h.i.h.i.h.i.h.i.h.i.h.i.i.      ;.;.;.,.                              ",
"                                ;.;.          i.h.i.h.i.h.i.h.i.h.i.h.i.h.i.h.i.h.          ;.;.                                ",
"                                              h.i.h.i.h.i.h.i.h.i.h.i.h.i.h.i.h.i.                                              ",
"                                                h.i.h.i.h.i.h.i.h.i.h.i.h.i.h.i.                                                ",
"                                                i.h.i.h.i.h.i.h.i.h.i.h.i.h.i.h.                                                ",
"                                                i.h.h.i.h.i.h.i.h.i.h.i.h.i.h.i.                                                ",
"                                                  k.i.h.i.h.i.h.i.h.i.h.i.h.h.                                                  ",
"                                                    h.i.h.i.h.i.h.i.h.i.h.i.                                                    ",
"                                                    i.h.i.h.i.h.i.h.i.h.i.h.                                                    ",
"                                                      h.h.i.h.i.h.i.h.i.h.                                                      ",
"                                                      i.i.h.i.h.i.h.i.h.h.                                                      ",
"                                                        p.h.h.i.h.i.h.i.                                                        ",
"                                                            u.h.i.h.                                                            "
};
