/* XPM */
static char *result[] = {
/* columns rows colors chars-per-pixel */
"64 64 73 1 ",
"  c #D7553A",
". c #D8553A",
"X c #DD5A3E",
"o c #E15D3F",
"O c #ED7B3E",
"+ c #F07F3E",
"@ c #DF5C40",
"# c #E15D41",
"$ c #E56244",
"% c #E86546",
"& c #EE6E47",
"* c #EB6748",
"= c #ED694A",
"- c #EE7344",
"; c #EF7B41",
": c #E99529",
"> c #ED9A2A",
", c #F29E2D",
"< c #ED8736",
"1 c #ED8A34",
"2 c #ED823A",
"3 c #F28F37",
"4 c #F0853B",
"5 c #F18B3A",
"6 c #EC9030",
"7 c #F29434",
"8 c #F39A32",
"9 c #F2923D",
"0 c #F4A32C",
"q c #F4A82F",
"w c #F3AC32",
"e c #F2AC3F",
"r c #EFBE3D",
"t c #F2B236",
"y c #F4B539",
"u c #F4BA3C",
"i c #EEC13F",
"p c #F3B243",
"a c #EDC441",
"s c #E9C843",
"d c #EECE49",
"f c #F4C443",
"g c #F4C946",
"h c #F3CD49",
"j c #F4D44E",
"k c #F4D451",
"l c #F3D65B",
"z c #F3D765",
"x c #F3D86B",
"c c #F1CB74",
"v c #F3DB72",
"b c #F3DB79",
"n c #EFD28B",
"m c #F3DF8B",
"M c #F3E092",
"N c #F3E29C",
"B c #EEE1AB",
"V c #F6E6A2",
"C c #F5E6A9",
"Z c #EEE1B0",
"A c #EDE2BA",
"S c #F4E7B2",
"D c #F2E8BB",
"F c #ECE4C2",
"G c #EDE5CD",
"H c #F1E8C3",
"J c #EBE6D4",
"K c #EEE9D5",
"L c #EBE7DB",
"P c #ECE9DB",
"I c #EBE9E5",
"U c #EAE9E8",
"Y c None",
/* pixels */
"YYYYYYYYYYYYYYYYYYYYYYYYYYYYYYYYYYYYYYYYYYYYYYYYYYYYYYYYYYYYYYYY",
"YYYYYYYYYYYYYYYYYYYYYY..YYYYYYYYYYYYYYYYYYYYYYYYYYYYYYYYYYYYYYYY",
"YYYYYYYYYYYYYYYYYYYYY....YYYYYYYYYYYYYYYYYYYYYYYYYYYYYYYYYYYYYYY",
"YYYYYYYYYYYYYYYYYYYYY....YYYYYYYYYYYYYYYYYYYYYYYYYYYYYYYYYYYYYYY",
"YYYYYYYYYYYYYYYYYYYYY....YYYYYYYYYYYYYYYYYYYYYYYYYYYYYYYYYYYYYYY",
"YYYYYYYYYYYYYYYYYYYYY....YYYYYYXYYYYYYYYYYYYYYYYYYYYYYYYYYYYYYYY",
"YYYYYYYYYYYYYYYYYYYYYY.. YYYYYX.XYYYYYYYYYYYYYYYYYYYYYYYYYYYYYYY",
"YYYYYYYYYYYYYYYYYYYYYY..YYYYYX .$YYYYYYYYYYYYYYYYYYYYYYYYYYYYYYY",
"YYYYYYYYYYYYYYYYYYYYYYYYYYYYX..#=YYYYYYYYYYYYYYYYYYYYYYYYYYYYYYY",
"YYYYYYYYYYYYYYYYYYYYYYYYYYY@..X*=YYYYYYYY.YYYYYYYYYYYYYYYYYYYYYY",
"YYYYYYYYYYYYYYYYYYYYYYYYYYY...*===YYYYYY...YYYYYYYYYYYYYYYYYYYYY",
"YYYYYYYYYYYYYYYYYYYYYYYYYYX..$====YYYYYY.. YYYYYYYYYYYYYYYYYYYYY",
"YYYYYYYYYYYYYYYYYYYYYYYYY#..X*====YYYYYY...YYYYYYYYYYYYYYYYYYYYY",
"YYYYYYYYYYYYYYYYYYYYYYYYY...$======YYYYY..YYYYYYYYYYYYYYYYYYYYYY",
"YYYYYYYYYYYYYYYYYYYYYYYYX..X=======YYYYYYYYYYYYYYYYYYYYYYYYYYYYY",
"YYYYYYYYYYYYYYYYYYYYYYYY...$========YYYYYYYYYYYYYYYYYYYYYYYYYYYY",
"YYYYYYYYYYYYYYYYYYYYYYY#...==========YYYYYYYYYYYYYYYYYYYYYYYYYYY",
"YYYYYYYYYYYYYYYYYYYYYYYX..#==========YYYYYYYYYYYYYYYYYYYYYYYYYYY",
"YYYYYYYYYYYYYYYYYYYYYYY...$===========YYYYYYYYYYYYYYYYY.YYYYYYYY",
"YYYYYYYYYYYYYYYYYYYYYY#...=============YYYY===YYYYYYYY...YYYYYYY",
"YYYYYYYYYYYYYYY#XYYYYYX..@====*--======YYYY====YYYYYYY...YYYYYYY",
"YYYYYYYYYYYYYYY...YYYYX..#===*O:>======YYY=====YYYYYYY...YYYYYYY",
"YYYYYYY.YYYYYYX..XYYYY...$===;::>=======YY======YYYYYY...YYYYYYY",
"YYYYYYY..YYYYY.. %=YYY.. %=*-::>q&======YY=======YYYYY...YYYYYYY",
"YYYYYYY..YYYYX..X===YY...*==:::00;================YYYY ..YYYYYYY",
"YYYYYYY..YYYY...$*==YY...==2::0007================YYYYY.YYYYYYYY",
"YYYYYYY..YYYX...*====#...==:::0000-================YYYYYYYYYYYYY",
"YYYYYYYYYYYYX..#=====*@.#=<::000007=================YYYYYYYYYYYY",
"YYYYYYYYYYYY...*=======*==::>000000;================YYYYYYYYYYYY",
"YYYYYYYYYYYX..X==========;::>0000008=================YYYYYYYYYYY",
"YYYYYYYYYYYX..#==========1::000000005===&-===========YYYYYYYYYYY",
"YYYYYYYYYYY. .$=====2-===::>000000000;==704===========YYYYYYYYYY",
"YYYYYYYYYYo...=====1::==O::>000>000007=&,005==========YYYYYYYYYY",
"YYYYYYYYYYX..X====&:::2=O::>000q000000&40000+=========YYYYYYYYYY",
"YYYYYYYYYY...#====<:::,*1::000qqt00000480000,&=========YYYYYYYYY",
"YYYYYYYYYY...%====:::>0<1::000wia0000000000008=========YYYYYYYYY",
"YYYYYYYYYY...*===2:::000:::000isaq000000000000+========YYYYYYYYY",
"YYYYYYYYYY...====::::00000000issdy0000000000008&=======YYYYYYYYY",
"YYYYYYYYY@...===*:::00000000rsssji00000000000005========YYYYYYYY",
"YYYYYYYYY#...===2:::00000000issijjw000000000000,========YYYYYYYY",
"YYYYYYYYYo. X===::::00000000sssdjjg0000000000000;=======YYYYYYYY",
"YYYYYYYYY@..X===:::>0000000tsssjjjju0qu0000000003=======YYYYYYYY",
"YYYYYYYYYX..@==&:::,000wsirisssjjjjjqyjh000000000=======YYYYYYYY",
"YYYYYYYYY# .X==-:::,000asiqissijjjjjugjji00000000-======YYYYYYYY",
"YYYYYYYYYY...==O:::000wsssiidijjjjjkhjjjju00000004======YYYYYYYY",
"YYYYYYYYYY...==<:::000isssdidjjjjjjjjjjjjjq0000003======YYYYYYYY",
"YYYYYYYYYY...==1:::000sssdjjjjjjkkjjjjjjjju00000,8======YYYYYYYY",
"YYYYYYYYYY...**6:::00wsssjjjjjjjxjjjjkjjjjjq000008=====YYYYYYYYY",
"YYYYYYYYYYX..$=<:::00isssjjjjjjmVjjjjjjjjjju000008=====YYYYYYYYY",
"YYYYYYYYYYX..$=2:::q0isssjjjjjxVVvjjjjjjjjjf000008=====YYYYYYYYY",
"YYYYYYYYYYY .X=;:::00issdjjjkkVVVVjjjjjjjjjj000007=====YYYYYYYYY",
"YYYYYYYYYYYX. *&:::,0issdjjjkkVVVHzxxjjjjjjjq00004====YYYYYYYYYY",
"YYYYYYYYYYY@..$=:::qqsisjjjMCvVVVUCFPljjjjjjy0000;====YYYYYYYYYY",
"YYYYYYYYYYYY..X=:::>qsssdjjCVCVVHUUUUBjjjjkjw0000====YYYYYYYYYYY",
"YYYYYYYYYYYYY..$O:::qissjjxVVVPDKUUUUUvjjjjjy0003====YYYYYYYYYYY",
"YYYYYYYYYYYYY#..&:::qisidjNVVDUUIUUUUUSjjjjj0000&===YYYYYYYYYYYY",
"YYYYYYYYYYYYYY@.X<::,isshkVVVPUUUUUUUUGkjjjg0003===YYYYYYYYYYYYY",
"YYYYYYYYYYYYYYYX %6::wssdhVVVUUUUUUUUUIkjjju008&==YYYYYYYYYYYYYY",
"YYYYYYYYYYYYYYYYo.%::>sssjVVCUUUUUUUUUUljjjq00&==YYYYYYYYYYYYYYY",
"YYYYYYYYYYYYYYYYYY.$>:wssdVVCUUUUUUUUUPkkjw0,&=YYYYYYYYYYYYYYYYY",
"YYYYYYYYYYYYYYYYYYYX@1:yssbVCUUUUUUUUUZkju07-=YYYYYYYYYYYYYYYYYY",
"YYYYYYYYYYYYYYYYYYYYY#O:tssCVJUUUUUUUPzhu8+=YYYYYYYYYYYYYYYYYYYY",
"YYYYYYYYYYYYYYYYYYYYYYYY27adVSUUUUUUKvf85YYYYYYYYYYYYYYYYYYYYYYY",
"YYYYYYYYYYYYYYYYYYYYYYYYYYY5pcBGPLAnp9YYYYYYYYYYYYYYYYYYYYYYYYYY"
};
