/* XPM */
static char *result[] = {
/* columns rows colors chars-per-pixel */
"64 64 73 1 ",
"  c #D7553A",
". c #D8553A",
"X c #DD5A3E",
"o c #E15D3F",
"O c #ED7B3E",
"+ c #F07F3E",
"@ c #DF5C40",
"# c #E15D41",
"$ c #E56244",
"% c #E86546",
"& c #EE6E47",
"* c #EB6748",
"= c #ED694A",
"- c #EE7344",
"; c #EF7B41",
": c #E99529",
"> c #ED9A2A",
", c #F29E2D",
"< c #ED8736",
"1 c #ED8A34",
"2 c #ED823A",
"3 c #F28F37",
"4 c #F0853B",
"5 c #F18B3A",
"6 c #EC9030",
"7 c #F29434",
"8 c #F39A32",
"9 c #F2923D",
"0 c #F4A32C",
"q c #F4A82F",
"w c #F3AC32",
"e c #F2AC3F",
"r c #EFBE3D",
"t c #F2B236",
"y c #F4B539",
"u c #F4BA3C",
"i c #EEC13F",
"p c #F3B243",
"a c #EDC441",
"s c #E9C843",
"d c #EECE49",
"f c #F4C443",
"g c #F4C946",
"h c #F3CD49",
"j c #F4D44E",
"k c #F4D451",
"l c #F3D65B",
"z c #F3D765",
"x c #F3D86B",
"c c #F1CB74",
"v c #F3DB72",
"b c #F3DB79",
"n c #EFD28B",
"m c #F3DF8B",
"M c #F3E092",
"N c #F3E29C",
"B c #EEE1AB",
"V c #F6E6A2",
"C c #F5E6A9",
"Z c #EEE1B0",
"A c #EDE2BA",
"S c #F4E7B2",
"D c #F2E8BB",
"F c #ECE4C2",
"G c #EDE5CD",
"H c #F1E8C3",
"J c #EBE6D4",
"K c #EEE9D5",
"L c #EBE7DB",
"P c #ECE9DB",
"I c #EBE9E5",
"U c #EAE9E8",
"Y c None",
/* pixels */
"YYYYYYYYYYYYYYYYYYYYYYYYYYYYYYYYYYYYYYYYYYYYYYYYYYYYYYYYYYYYYYYY",
"YYYYYYYYYYYYYYYYYYYYYYYYYYYYYYYYYYYYYYYY .YYYYYYYYYYYYYYYYYYYYYY",
"YYYYYYYYYYYYYYYYYYYYYYYYYYYYYYYYYYYYYYY....YYYYYYYYYYYYYYYYYYYYY",
"YYYYYYYYYYYYYYYYYYYYYYYYYYYYYYYYYYYYYYY....YYYYYYYYYYYYYYYYYYYYY",
"YYYYYYYYYYYYYYYYYYYYYYYYYYYYYYYYYYYYYYY....YYYYYYYYYYYYYYYYYYYYY",
"YYYYYYYYYYYYYYYYYYYYYYYYYYYYYYYYXYYYYYY....YYYYYYYYYYYYYYYYYYYYY",
"YYYYYYYYYYYYYYYYYYYYYYYYYYYYYYYX.XYYYYY...YYYYYYYYYYYYYYYYYYYYYY",
"YYYYYYYYYYYYYYYYYYYYYYYYYYYYYYY$..XYYYYY..YYYYYYYYYYYYYYYYYYYYYY",
"YYYYYYYYYYYYYYYYYYYYYYYYYYYYYYY=@..XYYYYYYYYYYYYYYYYYYYYYYYYYYYY",
"YYYYYYYYYYYYYYYYYYYYYY.YYYYYYYY==...XYYYYYYYYYYYYYYYYYYYYYYYYYYY",
"YYYYYYYYYYYYYYYYYYYYY...YYYYYY===*...YYYYYYYYYYYYYYYYYYYYYYYYYYY",
"YYYYYYYYYYYYYYYYYYYYY...YYYYYY====$..XYYYYYYYYYYYYYYYYYYYYYYYYYY",
"YYYYYYYYYYYYYYYYYYYYY...YYYYYY=====X..#YYYYYYYYYYYYYYYYYYYYYYYYY",
"YYYYYYYYYYYYYYYYYYYYYY..YYYYY======$...YYYYYYYYYYYYYYYYYYYYYYYYY",
"YYYYYYYYYYYYYYYYYYYYYYYYYYYYY=======X..@YYYYYYYYYYYYYYYYYYYYYYYY",
"YYYYYYYYYYYYYYYYYYYYYYYYYYYY========$...YYYYYYYYYYYYYYYYYYYYYYYY",
"YYYYYYYYYYYYYYYYYYYYYYYYYYY==========...#YYYYYYYYYYYYYYYYYYYYYYY",
"YYYYYYYYYYYYYYYYYYYYYYYYYYY==========o..XYYYYYYYYYYYYYYYYYYYYYYY",
"YYYYYYYY.YYYYYYYYYYYYYYYYY===========$...YYYYYYYYYYYYYYYYYYYYYYY",
"YYYYYYY...YYYYYYYY===YYYY=============...#YYYYYYYYYYYYYYYYYYYYYY",
"YYYYYYY...YYYYYYY====YYYY======--=====X..XYYYYYX#YYYYYYYYYYYYYYY",
"YYYYYYY...YYYYYYY=====YYY======::O====$..XYYYY...YYYYYYYYYYYYYYY",
"YYYYYYY...YYYYYY======YY=======,::-===$...YYYYX..XYYYYYY.YYYYYYY",
"YYYYYYY...YYYYY=======YY======&0>::-==%...YYY=%...YYYYY..YYYYYYY",
"YYYYYYY.. YYYY================+00:::&=* ..YY===.. XYYYY..YYYYYYY",
"YYYYYYYY YYYYY================700,::2== ..YY===$. XYYYY..YYYYYYY",
"YYYYYYYYYYYYY================&0000>::==...#=====...@YYY..YYYYYYY",
"YYYYYYYYYYYY=================70000>::<=#.X======#...YYYYYYYYYYYY",
"YYYYYYYYYYYY================+000000>::=========== ..YYYYYYYYYYYY",
"YYYYYYYYYYY=================,000000>::;==========X..XYYYYYYYYYYY",
"YYYYYYYYYYY===========-&===500000000::1==========#. XYYYYYYYYYYY",
"YYYYYYYYYY===========4q7==-q000000qq:::===-2=====$...YYYYYYYYYYY",
"YYYYYYYYYY==========5000&=7000000000>::&==::<=====...#YYYYYYYYYY",
"YYYYYYYYYY=========+00004&0000000000>::O=2:::&====X..XYYYYYYYYYY",
"YYYYYYYYY=========-,00000400000tqq00>::<=,>::<====#...YYYYYYYYYY",
"YYYYYYYYY=========7000000,0000qsiq00q::<20>:::====%...YYYYYYYYYY",
"YYYYYYYYY========+000000000000qiss000>:>000:::<*===...YYYYYYYYYY",
"YYYYYYYYY========,000000000000ygssu00000000::::*===...YYYYYYYYYY",
"YYYYYYYY========40000000000000ijsisq0000000>:::&===...#YYYYYYYYY",
"YYYYYYYY========,00000000000qwjjssai00000000:::<===.. @YYYYYYYYY",
"YYYYYYYY=======;0000000000000gjjjsssq0000000>:::===X..#YYYYYYYYY",
"YYYYYYYY=======300000000qu00ujjjjssst0000000>:::===X..XYYYYYYYYY",
"YYYYYYYY=======000000000gky0jjjjjssiiqtsw000>:::&==@..XYYYYYYYYY",
"YYYYYYYY======-00000000fjjgyjjjjjdssiqssi000>:::-==X .#YYYYYYYYY",
"YYYYYYYY======40000000yjjjjjjjjjjjsssrssit000:::O==X..YYYYYYYYYY",
"YYYYYYYY======3000000qjjjjjjjjkjjjjddjsssi00q:::<==...YYYYYYYYYY",
"YYYYYYYY======8,00000ujjjjjjjjjkjjjjjjssss0q0:::<== ..YYYYYYYYYY",
"YYYYYYYYY=====800000qjjjjjkjjjjxjjjjjjjisst>0:::1=%...YYYYYYYYYY",
"YYYYYYYYY=====800000ujjjjjjjjjjCmjjjjjjsssr00:::1=$..XYYYYYYYYYY",
"YYYYYYYYY=====800000fjjjjjjjjjxVVxjjjjjdsss00:::2=$..@YYYYYYYYYY",
"YYYYYYYYY=====70000qjjjjjjjjkjCVVCjjjjjdsis00:::O=X. YYYYYYYYYYY",
"YYYYYYYYYY====40000wjjjjjjjxzzDVVVjkjjjdsss00:::&=..@YYYYYYYYYYY",
"YYYYYYYYYY====;0000wjjkkjjlPFCICVVvCMjjjsisq0:::=$..@YYYYYYYYYYY",
"YYYYYYYYYYY===&0000wjjjkkjCUUUUHVVCVCjjdsss00:::=X..YYYYYYYYYYYY",
"YYYYYYYYYYY====3000wkjjjjxIUUUUJDIVVVxjdsis0>::O$..YYYYYYYYYYYYY",
"YYYYYYYYYYYY===&000qjjjjjDUUUUUIIIDVVNjdsss0:::=. #YYYYYYYYYYYYY",
"YYYYYYYYYYYYY===3000gjjjjJUUUUUUIIKVVVkjisi>::<#.XYYYYYYYYYYYYYY",
"YYYYYYYYYYYYYY==&800ujjkjIUUUUUUUUUCVVjdssw:::$.XYYYYYYYYYYYYYYY",
"YYYYYYYYYYYYYYY==-80qjjjlUUUUUUUUUUCVVjiss>::$ XYYYYYYYYYYYYYYYY",
"YYYYYYYYYYYYYYYYY=-,0wjjkLUUUUUUUUUCVNjssw>:$XYYYYYYYYYYYYYYYYYY",
"YYYYYYYYYYYYYYYYYY=-7qujkSUUUUUUUUUCVbsst:1$XYYYYYYYYYYYYYYYYYYY",
"YYYYYYYYYYYYYYYYYYYY=;0phzLUUUUUUUKNVdsr:O#YYYYYYYYYYYYYYYYYYYYY",
"YYYYYYYYYYYYYYYYYYYYYYY48gxJUUUUUUSBda:<YYYYYYYYYYYYYYYYYYYYYYYY",
"YYYYYYYYYYYYYYYYYYYYYYYYYY5pnALLGCcp9YYYYYYYYYYYYYYYYYYYYYYYYYYY"
};
