/* XPM */
static char *_78caadd38ec4ea7ecce73d06f268817S0j7ylWX5KEY1nsY[] = {
/* columns rows colors chars-per-pixel */
"64 64 218 2 ",
"   c None",
".  c gray16",
"X  c #2C2C2C",
"o  c #2D2D2D",
"O  c #2F2F2F",
"+  c #3B332D",
"@  c #3C352F",
"#  c #353535",
"$  c gray22",
"%  c #3E3E3E",
"&  c #6F2E01",
"*  c #702E01",
"=  c #702E02",
"-  c #773202",
";  c #793301",
":  c #793302",
">  c #7A3403",
",  c #423C38",
"<  c #6F5936",
"1  c #63553E",
"2  c #725A33",
"3  c #414141",
"4  c #444444",
"5  c gray27",
"6  c #464646",
"7  c gray28",
"8  c #494441",
"9  c #4F4C47",
"0  c #484848",
"q  c #494949",
"w  c gray29",
"e  c #4B4B4B",
"r  c #4F4C4A",
"t  c #4C4C4C",
"y  c gray30",
"u  c #4E4E4E",
"i  c gray31",
"p  c #575044",
"a  c #525253",
"s  c gray33",
"d  c #555555",
"f  c #565656",
"g  c #585858",
"h  c gray35",
"j  c #5A5A5A",
"k  c #5B5B5B",
"l  c gray36",
"z  c #5D5D5D",
"x  c gray37",
"c  c #5F5F5F",
"v  c #605043",
"b  c gray38",
"n  c #626262",
"m  c gray39",
"M  c #646464",
"N  c #686868",
"B  c gray42",
"V  c #6B6B6D",
"C  c #6D6D6D",
"Z  c #6D6D6E",
"A  c gray43",
"S  c #6F6F6F",
"D  c #717171",
"F  c #707072",
"G  c #717172",
"H  c #737374",
"J  c #747475",
"K  c #767678",
"L  c #787879",
"P  c #797979",
"I  c #7A7A7C",
"U  c #7C7C7C",
"Y  c #8B3C04",
"T  c #8C3D05",
"R  c #913F02",
"E  c #914002",
"W  c #974402",
"Q  c #914404",
"!  c #994602",
"~  c #9F4B02",
"^  c #9D4A04",
"/  c #AF4F09",
"(  c #A65201",
")  c #A75202",
"_  c #BA6301",
"`  c #835A3A",
"'  c #94723A",
"]  c #B1652E",
"[  c #B17E2B",
"{  c #B16630",
"}  c #C95D0D",
"|  c #D67B01",
" . c #EB6D13",
".. c #EF6F13",
"X. c #E96D14",
"o. c #EF7013",
"O. c #F17114",
"+. c #F27114",
"@. c #F47214",
"#. c #F77415",
"$. c #F87515",
"%. c #FF7716",
"&. c #FF7717",
"*. c #FD7B13",
"=. c #FE7C13",
"-. c #FF7C13",
";. c #FF7815",
":. c #FF7915",
">. c #FE7816",
",. c #FF7816",
"<. c #FF7817",
"1. c #D68E17",
"2. c #D68F19",
"3. c #E58800",
"4. c #EF9100",
"5. c #EF9200",
"6. c #F29300",
"7. c #F29400",
"8. c #F49600",
"9. c #F59600",
"0. c #F69800",
"q. c #F99A00",
"w. c #FA9A00",
"e. c #FA9B00",
"r. c #FF9F00",
"t. c #FF9F01",
"y. c #FFA000",
"u. c #F98531",
"i. c #F88737",
"p. c #FCA921",
"a. c #FBAB27",
"s. c #EF995C",
"d. c #F6B953",
"f. c #818181",
"g. c #828284",
"h. c #848485",
"j. c #868686",
"k. c #868688",
"l. c #88888B",
"z. c gray54",
"x. c #8F8F91",
"c. c #929292",
"v. c gray58",
"b. c gray59",
"n. c #979797",
"m. c #99999B",
"M. c #9A9A9A",
"N. c #9A9A9B",
"B. c #9B9B9E",
"V. c #9D9D9D",
"C. c #9F9FA2",
"Z. c #A0A0A0",
"A. c #A4A4A4",
"S. c #A4A4A6",
"D. c #A7A7A7",
"F. c #A4A4A8",
"G. c #A9A9A9",
"H. c gray67",
"J. c #ABABAE",
"K. c gray68",
"L. c #ACACAF",
"P. c #ADADAF",
"I. c #AEAEB1",
"U. c #B1B1B1",
"Y. c #B7B7B7",
"T. c #B7B7BB",
"R. c gray72",
"E. c #B9B9B9",
"W. c #B9B9BD",
"Q. c #BABABD",
"!. c #BBBBBF",
"~. c gray74",
"^. c gray75",
"/. c #E4B08D",
"(. c #DEBDA9",
"). c #CCBCB5",
"_. c #F0CB8E",
"`. c #DBC3B6",
"'. c #EDD5AF",
"]. c #E3D5BC",
"[. c #EBDABE",
"{. c #BEBEC0",
"}. c #C0C0C3",
"|. c #C2C2C6",
" X c gray77",
".X c #C7C7CB",
"XX c #C7C7CC",
"oX c #C8C8C8",
"OX c #C8C8CB",
"+X c #CBCBCB",
"@X c #C8C8CC",
"#X c #C8C8CD",
"$X c #CACACE",
"%X c #CBCBCF",
"&X c #CECECE",
"*X c #CDCDD2",
"=X c #D5CFD0",
"-X c #D4D0D1",
";X c #D1D1D6",
":X c #D2D2D7",
">X c #D3D3D7",
",X c gray83",
"<X c #D2D2D8",
"1X c #D3D3D8",
"2X c #D4D4D8",
"3X c #D4D4D9",
"4X c gray85",
"5X c gray86",
"6X c gainsboro",
"7X c #DFDFDF",
"8X c #E8E4DE",
"9X c #E1E1E1",
"0X c gray89",
"qX c #E7E5E2",
"wX c gray90",
"eX c #E6E6E6",
"rX c #E7E7E7",
"tX c gray91",
/* pixels */
"                                        rXrXqX[._.d.r.r.r.r.r.r.%.,.,.,.,.,.s./.`.=X1X1X                                        ",
"                                    tXrXrXrXrXrXrXrX'.p.r.r.r.r.,.,.,.,.u.(.1X1X1X1X1X1X1X3X                                    ",
"                                  rXrXrXrXrXrXrXrXrXrX8Xa.r.r.r.,.,.,.i.=X1X1X1X1X1X1X1X1X1X1X                                  ",
"                                rXrXrXrXrX9X+X5XrXrXrXrX].2.1.2.] ] { ).1X1X1X1XXXT.*X1X1X1X1X1X                                ",
"                                rXrXrXrXV.l j j j.5XrXrXrXn.j j 4 4 g.1X1X1X#XF 4 4 6 l.*X1X1X1X                                ",
"                                rXrXrXA.j j j j j f.rXrXrX^.j j 4 4 J.1X1X1XV 4 4 4 4 4 c.1X1X1X                                ",
"                              rXrXrXtXn j j j j j j &XrXrX5Xj j 4 4 #X>X1XW.4 4 4 4 4 4 u 1X1X1X1X                              ",
"                              rXrXrX6Xj j j j j j j E.rXrXrXM j 4 u 1X1X1XF.4 4 4 4 4 4 4 XX1X1X1X                              ",
"                              rXrXrXrXn j j j j j j &XrXrX6Xj j 4 4 #X>X1XW.4 4 4 4 4 4 u 1X1X1X1X                              ",
"                                rXrXrXA.j j j j j f.rXrXrX^.j j 4 4 J.1X1X1XV 4 4 4 4 4 x.1X1X1X                                ",
"                                rXrXrXrXV.l j j j.6XrXrXrXn.j j 4 4 g.1X1X1X#XF 4 4 4 l.>X>X1X1X                                ",
"                                rXrXrXrXrX9X+X5XrXrXrXrX].2.1.1.] ] { ).1X1X1X1X.XW.*X3X1X1X1X>X                                ",
"                                  rXrXrXrXrXrXrXrXrXrX8Xa.r.r.r.,.,.,.i.=X1X1X1X1X1X1X1X1X1X1X                                  ",
"                                    tXrXrXrXrXrXrXrX'.p.r.r.r.r.,.,.,.,.u.(.1X1X1X1X1X1X1X3X                                    ",
"                                        rXrXqX[._.d.r.r.r.r.r.r.,.,.,.,.,.,.s./.`.-X1X1X                                        ",
"                                                    E R R R R R & & & & & ;                                                     ",
"                                                    E R R R R R & & & & & >                                                     ",
"                                                    E R R R R R & & & & & >                                                     ",
"                                                    ) ~ ~ ~ ~ ~ Q Q Q Q Q ~                                                     ",
"      r.r.r.r.r.              r.r.r.r.r.r.r.r.r.r.r.r.r.r.r.r.r.,.,.,.,.,.%.,.,.,.,.,.,.,.,.,.,.-.              ,.,.,.,.,.      ",
"    r.r.r.r.r.r.r.            r.r.r.r.r.r.r.r.r.r.r.r.r.r.r.r.r.,.,.,.,.,.,.,.,.,.,.,.,.,.,.,.,.-.            ,.,.,.,.,.,.,.    ",
"  r.r.r.r.r.r.r.r.r.          y.r.r.r.r.r.r.r.r.r.r.r.r.r.r.r.r.,.,.,.,.,.,.,.,.,.,.,.,.,.,.,.,.-.          ,.,.,.,.,.,.,.,.,.  ",
"y.r.r.r.r.r.r.r.r.r.0.        q.r.r.r.r.r.r.r.r.r.r.r.r.r.r.r.r.,.,.,.,.,.,.,.,.,.,.,.,.,.,.,.,.-.        @.,.,.,.,.,.,.,.,.,.,.",
"r.r.r.r.r.r.r.r.r.r.r.W R R R 6.r.r.r.r.r.r.r.r.r.r.r.r.r.r.r.r.,.,.,.,.,.,.,.,.,.,.,.,.,.,.,.,.,.& & & - ,.,.,.,.,.,.,.,.,.,.<.",
"y.r.r.r.r.r.r.r.r.r.r.) R R R 6.r.r.r.r.r.r.r.r.r.r.r.r.r.r.r.r.,.,.,.,.,.,.,.,.,.,.,.,.,.,.,.,.*.& & & T ,.,.,.,.,.,.,.,.,.,.,.",
"r.r.r.r.r.r.r.r.r.r.r.W R E R 6.r.r.r.r.r.r.r.r.r.r.r.r.r.r.r.r.,.,.,.%.,.,.,.,.,.,.,.,.,.,.,.,.*.& & & - ,.,.,.,.,.,.,.,.,.,.<.",
"y.r.r.r.r.r.r.r.r.r.0.        q.r.r.r.r.r.r.3._ _ _ _ _ _ _ _ _ T Y Y Y Y Y Y Y T } ,.,.,.,.,.,.*.        @.,.,.,.,.,.,.,.,.,.<.",
"  r.r.r.r.r.r.r.r.r.          r.r.r.r.r.r.r.| R R R R R R R R R & & & & & & & & & / ,.,.,.,.,.,.*.          ,.,.,.,.,.,.,.,.,.  ",
"    r.r.r.r.r.r.r.            r.r.r.r.r.r.r.| R R R R R R R R R & & & & & & & & & / ,.,.,.,.,.,.*.            ,.,.,.,.,.,.,.    ",
"      7.8.r.q.4.              r.r.r.r.r.r.r.| R R R R R R R R R & & & & & & & & & / ,.,.,.,.,.,.*.              X.#.,.O.o.      ",
"        R ! R E               r.r.r.r.r.r.r.| R R R R R R R R R & & & & & & & & & / ,.,.,.,.,.,.*.              & = > &         ",
"        R R R E               r.r.r.r.r.r.r.| R R R R R R R R R & & & & & & & & & / ,.,.,.,.<.-.*.              = & & &         ",
"        R R R E               r.r.r.r.r.r.r.| R R R R R R R R R & & & & & & & & & / ,.,.,.,.,.,.*.              = & & &         ",
"        R ! R R               r.r.r.r.r.r.r.| R R R R R R R R R & & & & & & & & & / ,.,.,.,.,.,.*.              = = > =         ",
"      7.8.r.q.6.              r.r.r.r.r.r.r.| R R R R R R R R R & & & & & & & & & / ,.,.,.,.,.,.*.              X.$.<.O...      ",
"    r.r.r.r.r.r.r.            r.r.r.r.r.r.r.| R R R R R R R R R & & & & & & & & & / ,.,.,.,.,.,.*.            <.<.<.,.,.,.%.    ",
"  r.r.r.r.r.r.r.r.r.          r.r.r.r.r.r.r.| R R R R R T E E R & & & & & & & & & / ,.,.,.,.,.,.*.          <.<.,.,.,.,.,.,.,.  ",
"r.r.r.r.r.r.r.r.r.r.r.        r.r.r.r.r.r.r.3._ _ _ _ _ _ _ _ _ Y Y Y Y Y Y Y Y Y } ,.,.,.,.,.,.*.        <.<.<.,.,.,.,.,.,.,.,.",
"r.r.r.r.      r.r.r.r.        r.r.r.r.r.r.r.r.r.r.r.r.r.r.r.r.r.,.,.,.,.,.,.,.,.,.,.,.,.,.,.,.,.*.        <.<.<.,.      ,.,.,.%.",
"y.r.r.y.      y.r.r.r.        r.r.r.r.r.r.r.r.r.r.r.r.r.r.r.r.r.,.,.,.,.,.,.,.,.,.,.,.,.,.,.,.,.6.        <.<.<.,.      ,.,.,.,.",
"r.r.r.r.      r.r.r.r.        r.r.r.r.r.r.r.r.r.r.r.r.r.r.r.r.r.,.,.,.,.,.,.,.,.,.,.,.,.,.,.,.,.-.        ,.,.,.,.      ,.,.,.%.",
"r.r.r.r.        y.y.r.        r.r.r.r.r.r.r.r.r.r.r.r.r.r.r.r.r.,.,.,.,.,.,.,.,.,.,.,.,.,.,.,.,.-.        ,.,.,.        %.,.,.,.",
"  r.y.            y.          r.r.r.r.r.r.r.r.r.r.r.r.r.r.r.r.r.,.,.,.,.,.,.,.,.,.,.,.,.,.,.,.,.-.          ,.            &.,.  ",
"                              r.r.r.r.r.r.r.r.r.r.r.r.r.r.r.r.r.,.,.,.,.,.,.,.,.,.,.,.,.,.,.,.,.-.                              ",
"                              y.y.y.y.y.r.r.r.r.y.y.r.r.y.y.y.y.,.,.,.,.,.,.,.,.,.,.,.,.,.,.,.,.-.                              ",
"                              [ ' 9 p v < 2 2 2 2 2 2 2 2 2 2 2 + + + + + + + + + + @ @ , 8 r p `                               ",
"                          j j j j 4 4 4 4 q 4 4 4 4 4 4 4 4 4 4 . . . . . . . . . . % g j j j 4 4 4 4 u                         ",
"                      j j j j j j 4 4 4 4 4 q 4 4 4 4 4 4 4 4 4 . . . . . . . . o u j j j j j 4 4 4 4 4 q                       ",
"                    j j j j j j j 4 4 4 4 4 4 0 4 4 4 4 4 4 4 4 . . . . . . . o d j j j j j j 4 4 4 4 4 4 4                     ",
"                  j j j j j z.^.4X1X$XN.4 4 4 4 b eXrXrXrXrXrXrX1X1X1X1X1X1X1Xk.j j j j z.~.5X1X#XN.4 4 4 4 q                   ",
"                  j j j l Y.rXrXrX1X1X1XXXe 4 4 4 b.rXrXrXrXrXrX1X1X1X1X1X1XI.j j j l R.rXrXrX1X>X3X#Xu 4 4 4 u                 ",
"                j j j j A.rXrXrXrX1X1X1X1XQ.4 4 4 d rXrXrXrXrXrX1X1X1X1X1X1XI j j j D.rXrXrXrX1X1X>X>XW.4 4 4 q                 ",
"                j j k F tXrXrX+X XN.Z.1X1X1XG 4 4 4 0XrXrXrXrXrX1X1X1X1X1X1Xn j j F rXrXrXoX Xm.C.1X1X1XF 4 4 4                 ",
"                j j j c.tXrXrXN j 4 0 1X1X1XS.4 4 4 {.rXrXrXrXrX1X1X1X1X1X|.j j j c.rXrXrXB j 4 q 1X1X1XA.4 4 4                 ",
"                j j j H.rXrXrXN j 4 0 1X1X1X{.4 4 4 b.rXrXrXrXrX1X1X1X1X1XJ.j j j H.rXrXrXB j 4 4 3X1X1X{.4 4 4 u               ",
"                j j j m.rXrXrXZ j 4 0 1X1X1XJ.4 4 4 U.eXrXrXrXrX1X1X1X1X1X~.j j j M.rXrXrXB j 4 q 3X1X1XI.4 4 4                 ",
"                j j j U rXeXeXF.Z.S L 1X1X1Xh.4 4 4 8XrXrXrXrXrX1X1X1X1X1X;Xk j j U rXrXrXG.Z.Z K 1X3X3Xj.4 4 4                 ",
"                j j j j `.0XeXtXrX1X1X1X1X$X4 4 4 u eXrXrXrXrXrX1X1X1X1X1X1XJ j j j {.rXrXrXrX1X1X>X3X#X4 4 4 4                 ",
"                  j j j N <XtXeXrX1X1X1X1Xn 4 4 4 L rXrXrXrXrXrX1X1X1X1X1X1XB.j j j N ,XrXrXrX1X1X1X3Xn 4 4 4 u                 ",
"                  j j j j n L.9XrX1X3X{.a 4 4 4 i 0XrXrXrXrXrXrX1X1X1X1X1X1X1XJ j j j b P.7XrX1X3X}.a 4 4 4 q                   ",
"                    j j j j j k S S 5 4 4 4 4 5 M Z Z Z V V Z Z L L L L L L L J k j j j j k S Z 4 4 4 4 4 4                     ",
"                      k j j j j j 4 4 4 4 4 6 q 4 4 4 4 4 4 4 4 . . . . . . . . $ f j j j j j 4 4 4 4 4 4 u                     ",
"                        j k j j j 4 4 4 4 q 6 4 4 4 4 4 4 4 4 4 . . . . . . . . . o w j j j j 4 4 8 4 q                         ",
"                              j j 6 q w 0 4 4 4 4 4 4 4 4 4 4 4 . . . . . . . . . . . # 3 e d 6 0 u                             "
};
