/* XPM */
static char *_68_6ba051f6659135c1087ad08f1ad99fe98c3ec7bab5fcb020d60a552bca3692ba[] = {
/* columns rows colors chars-per-pixel */
"64 64 158 2 ",
"   c #000000",
".  c #090505",
"X  c #05090B",
"o  c #0A0A0B",
"O  c #030608",
"+  c #150909",
"@  c #1E0C0C",
"#  c #070C10",
"$  c #080E11",
"%  c #091115",
"&  c #0B1318",
"*  c #0E181F",
"=  c #141515",
"-  c #1F1010",
";  c #191A1B",
":  c #200D0D",
">  c #211111",
",  c #2A1615",
"<  c #321514",
"1  c #321919",
"2  c #3C1C1C",
"3  c #3E201F",
"4  c #0F1A21",
"5  c #1F2021",
"6  c #15242D",
"7  c #162831",
"8  c #192B36",
"9  c #1A2C38",
"0  c #162530",
"q  c #1B313C",
"w  c #222425",
"e  c #272B2C",
"r  c #2A2C2D",
"t  c #3F2020",
"y  c #352F30",
"u  c #2D3031",
"i  c #313334",
"p  c #353839",
"a  c #393C3D",
"s  c #393435",
"d  c #461D1D",
"f  c #462323",
"g  c #492525",
"h  c #522929",
"j  c #592524",
"k  c #5D302F",
"l  c #6C2D2C",
"z  c #722F2E",
"x  c #613231",
"c  c #6F3938",
"v  c #6A3636",
"b  c #743737",
"n  c #7E3434",
"m  c #7A3D3C",
"M  c #733B3A",
"N  c #1E3542",
"B  c #213746",
"V  c #213847",
"C  c #223B4B",
"Z  c #244353",
"A  c #284356",
"S  c #2A465A",
"D  c #2A4B5C",
"F  c #2D4F63",
"G  c #2C5164",
"H  c #32556D",
"J  c #345B72",
"K  c #385E78",
"L  c #3A627D",
"P  c #444849",
"I  c #4C4F51",
"U  c #4F5355",
"Y  c #585C5E",
"T  c #5E6365",
"R  c #676C6E",
"E  c #6D7375",
"W  c #813B3A",
"Q  c #8F3B3A",
"!  c #813534",
"~  c #824242",
"^  c #8A4746",
"/  c #8F4948",
"(  c #904141",
")  c #924A4A",
"_  c #994E4E",
"`  c #9F5151",
"'  c #A84645",
"]  c #BC4D4D",
"[  c #A35453",
"{  c #A95655",
"}  c #B85856",
"|  c #B35B5A",
" . c #BB5F5F",
".. c #B25553",
"X. c #BE6060",
"o. c #C25C5B",
"O. c #D25656",
"+. c #DD5B5A",
"@. c #E15D5C",
"#. c #C8605E",
"$. c #EA605F",
"%. c #C26362",
"&. c #C96766",
"*. c #CC6867",
"=. c #CE6968",
"-. c #D86765",
";. c #D26B6A",
":. c #DA6F6E",
">. c #DB706F",
",. c #EE6261",
"<. c #EF6968",
"1. c #E46A69",
"2. c #F06C6B",
"3. c #F1706F",
"4. c #E67574",
"5. c #EB7574",
"6. c #EA7877",
"7. c #EF7A79",
"8. c #F17371",
"9. c #F27877",
"0. c #F37C7B",
"q. c #3C6B85",
"w. c #3C6F88",
"e. c #3F758F",
"r. c #426F8E",
"t. c #40758F",
"y. c #447694",
"u. c #437B96",
"i. c #447D99",
"p. c #497D9F",
"a. c #4A7EA0",
"s. c #7D8386",
"d. c #4A83A3",
"f. c #4E85A9",
"g. c #4E88AA",
"h. c #5087AC",
"j. c #5189AF",
"k. c #548EB5",
"l. c #83898C",
"z. c #869194",
"x. c #899295",
"c. c #8F9699",
"v. c #939B9E",
"b. c #99A3A6",
"n. c #ABB3B7",
"m. c #B3BCC0",
"M. c #BEC8CC",
"N. c #C1D1D6",
"B. c #C6D3D9",
"V. c #CED9DD",
"C. c #F0D8DC",
"Z. c #D9EAF0",
"A. c #DFF1F7",
"S. c #E7F2F7",
"D. c #E4F4F9",
"F. c #E9F5FA",
"G. c #EEFAFF",
"H. c None",
/* pixels */
"H.H.H.H.H.H.H.H.H.H.H.H.H.H.H.H.H.H.H.H.H.H.H.H.H.H.H.H.H.H.H.    H.H.H.H.H.H.H.H.H.H.H.H.H.H.H.H.H.H.H.H.H.H.H.H.H.H.H.H.H.H.H.",
"H.H.H.H.H.H.H.H.H.H.H.H.H.H.H.H.H.H.H.H.H.H.H.H.H.H.H.H.H.H.H.    H.H.H.H.H.H.H.H.H.H.H.H.H.H.H.H.H.H.H.H.H.H.H.H.H.H.H.H.H.H.H.",
"H.H.H.H.H.H.H.H.H.H.H.H.H.H.H.H.H.H.H.H.H.H.H.H.H.H.H.H.H.            H.H.H.H.H.H.H.H.H.H.H.H.H.H.H.H.H.H.H.H.H.H.H.H.H.H.H.H.H.",
"H.H.H.H.H.H.H.H.H.H.H.H.H.H.H.H.H.H.H.H.H.H.H.H.H.H.H.H.    9 S D 9     H.H.H.H.H.H.H.H.H.H.H.H.H.H.H.H.H.H.H.H.H.H.H.H.H.H.H.H.",
"H.H.H.H.H.H.H.H.H.H.H.H.H.H.H.H.H.H.H.H.H.H.H.H.H.H.H.    H k.k.k.k.H     H.H.H.H.H.H.H.H.H.H.H.H.H.H.H.H.H.H.H.H.H.H.H.H.H.H.H.",
"H.H.H.H.H.H.H.H.H.H.H.H.H.H.H.H.H.H.H.H.H.H.H.H.H.H.H.  $ k.k.k.k.k.k.#   H.H.H.H.H.H.H.H.H.H.H.H.H.H.H.H.H.H.H.H.H.H.H.H.H.H.H.",
"H.H.H.H.H.H.H.H.H.H.H.H.H.H.H.H.H.H.H.H.H.H.H.H.H.H.H.  & H H H H H H &   H.H.H.H.H.H.H.H.H.H.H.H.H.H.H.H.H.H.H.H.H.H.H.H.H.H.H.",
"H.H.H.H.H.H.H.H.H.H.H.H.H.H.H.H.                                                                H.H.H.H.H.H.H.H.H.H.H.H.H.H.H.H.",
"H.H.H.H.H.H.H.H.H.H.H.H.H.H.H.    : l ! ! ! W ~ ~ ~ ~ m ~ ~ ~ ~ ~ ~ ~ ~ ~ ~ ~ ~ ~ ~ ~ ~ ~ c >     H.H.H.H.H.H.H.H.H.H.H.H.H.H.H.",
"H.H.H.H.H.H.H.H.H.H.H.H.H.H.H.  d @.,.,.,.,.0.0.0.0.0.0.0.0.0.0.0.0.0.0.0.0.0.0.0.0.0.0.0.0.6.d   H.H.H.H.H.H.H.H.H.H.H.H.H.H.H.",
"H.H.H.H.H.H.H.H.H.H.H.H.H.H.    ] $.,.,.,.3.0.0.0.0.0.0.0.0.0.0.0.0.0.0.0.0.0.0.0.0.0.0.0.0.0. .    H.H.H.H.H.H.H.H.H.H.H.H.H.H.",
"H.H.H.H.H.H.H.H.H.H.H.H.H.H.    @.,.,.,.,.8.0.*.) ` 4.0.0.0.0.0.0.0.0.0.0.X./ [ 6.0.0.0.0.0.0.4.    H.H.H.H.H.H.H.H.H.H.H.H.H.H.",
"H.H.H.H.H.H.H.H.H.H.H.H.H.      @.$.,.,.,.8.m       + X.0.0.0.0.0.0.0.0.k       > ;.0.0.0.0.0.4.      H.H.H.H.H.H.H.H.H.H.H.H.H.",
"H.H.H.H.H.H.H.H.H.H.H.          @.,.,.,.,.}   = s.T   - 0.0.0.0.0.0.0.`   5 l.I   f 0.0.0.0.0.4.          H.H.H.H.H.H.H.H.H.H.H.",
"H.H.H.H.H.H.H.H.H.H.    9 H &   @.,.,.,.,.b   v.G.G.P   &.0.0.0.0.0.0.h   m.G.G.w   6.0.0.0.0.4.  & H 6     H.H.H.H.H.H.H.H.H.H.",
"H.H.H.H.H.H.H.H.H.    C k.k.4   @.,.,.,.$.m   x.G.G.a   &.0.0.0.0.0.0.h   n.G.F.;   6.0.0.0.0.6.  4 k.k.q     H.H.H.H.H.H.H.H.H.",
"H.H.H.H.H.H.H.H.H.    y.k.k.4   @.,.,.,.,.o.  o R I   , 0.0.0.0.0.0.0.[   = E a   g 0.0.0.0.0.4.  4 k.k.y.    H.H.H.H.H.H.H.H.H.",
"H.H.H.H.H.H.H.H.H.    j.k.k.4   @.,.,.,.,.8.) .     > &.0.0.0.0.0.0.0.0.M       1 >.0.0.0.0.0.4.  4 k.k.j.    H.H.H.H.H.H.H.H.H.",
"H.H.H.H.H.H.H.H.H.    y.k.k.4   @.,.,.,.,.8.0.:.[ | 6.0.0.0.0.0.0.0.0.0.0.;.[  .0.0.0.0.0.0.0.4.  4 k.k.p.    H.H.H.H.H.H.H.H.H.",
"H.H.H.H.H.H.H.H.H.    N k.k.4   @.,.,.,.,.8.0.0.0.0.0.0.0.0.0.0.0.0.0.0.0.0.0.0.0.0.0.0.0.0.0.4.  4 k.k.S     H.H.H.H.H.H.H.H.H.",
"H.H.H.H.H.H.H.H.H.H.    7 L &   @.,.,.,.,.8.0.0.0.0.0.0.0.0.0.0.0.0.0.0.0.0.0.0.0.0.0.0.0.0.0.4.  & L V     H.H.H.H.H.H.H.H.H.H.",
"H.H.H.H.H.H.H.H.H.H.H.          @.,.,.,.,.8.0.0.0.0.0.` x x x x x x x x ^ 0.0.0.0.0.0.0.0.0.0.4.          H.H.H.H.H.H.H.H.H.H.H.",
"H.H.H.H.H.H.H.H.H.H.H.H.H.      @.,.,.,.,.8.0.0.0.0.0.-                   6.0.0.0.0.0.0.0.0.0.4.      H.H.H.H.H.H.H.H.H.H.H.H.H.",
"H.H.H.H.H.H.H.H.H.H.H.H.H.H.    @.,.,.,.,.8.0.0.0.0.0.;.| | | | | | | | =.0.0.0.0.0.0.0.0.0.0.4.    H.H.H.H.H.H.H.H.H.H.H.H.H.H.",
"H.H.H.H.H.H.H.H.H.H.H.H.H.H.    ] ,.,.,.,.2.0.0.0.0.0.0.0.0.0.0.0.0.0.0.0.0.0.0.0.0.0.0.0.0.0.%.    H.H.H.H.H.H.H.H.H.H.H.H.H.H.",
"H.H.H.H.H.H.H.H.H.H.H.H.H.H.H.  d @.,.,.,.<.0.0.0.0.0.0.0.0.0.0.0.0.0.0.0.0.0.0.0.0.0.0.0.0.7.g   H.H.H.H.H.H.H.H.H.H.H.H.H.H.H.",
"H.H.H.H.H.H.H.H.H.H.H.H.H.H.H.    < ! Q Q Q ( ) ) ) ) ) ) ) ) ) ) ) ) ) ) ) ) ) ) ) ) ) ) ~ 1     H.H.H.H.H.H.H.H.H.H.H.H.H.H.H.",
"H.H.H.H.H.H.H.H.H.H.H.H.H.H.H.H.                                                                H.H.H.H.H.H.H.H.H.H.H.H.H.H.H.H.",
"H.H.                  H.H.H.H.H.H.H.H.H.H.H.H.H.H.H.    9 Z Z Z Z Z Z 8     H.H.H.H.H.H.H.H.H.H.H.H.H.H.H.                  H.H.",
"H.H.  o z.z.x.c.c.;   H.H.H.H.H.H.H.H.H.H.H.H.H.H.H.    G i.i.i.i.i.i.G     H.H.H.H.H.H.H.H.H.H.H.H.H.H.H.  ; z.z.x.c.v.o   H.H.",
"H.H.  = A.A.D.G.G.r   H.H.H.H.H.H.H.H.H.H.H.H.H.H.H.    G i.i.i.i.i.i.G     H.H.H.H.H.H.H.H.H.H.H.H.H.H.H.  e A.A.D.G.G.=   H.H.",
"H.H.  = A.A.D.G.G.r   H.H.H.H.H.H.H.H.H.H.H.H.H.H.H.    q D D D D D D q     H.H.H.H.H.H.H.H.H.H.H.H.H.H.H.  e A.D.D.G.G.=   H.H.",
"H.H.  = A.A.A.G.G.r                                                                                         e A.A.D.G.G.=   H.H.",
"H.H.  = A.A.D.G.G.r     % C $   n n n ! ! W ~ ~ ~ ~ ~ ~ ~ ~ ~ ~ ~ ~ ~ ~ ~ ~ ~ ~ ~ ~ ~ ~ ~ ~ ~ m   $ C &     e A.D.D.G.G.=   H.H.",
"H.H.  ; A.A.D.G.G.r   0 j.k.4   +.,.,.,.,.8.0.0.0.0.0.0.0.0.0.0.0.0.0.0.0.0.0.0.0.0.0.0.0.0.0.4.  4 k.k.7   e A.A.D.G.G.;   H.H.",
"H.H.H.b.A.A.D.G.G.r   r.k.k.4   @.,.,.,.,.8.0.0.0.0.0.0.0.0.0.0.0.0.0.0.0.0.0.0.0.0.0.0.0.0.0.4.  4 k.k.y.  e A.A.D.G.G.b.H.H.H.",
"H.H.H.A.A.A.D.G.G.r   h.k.k.4   @.,.,.,.,.3.0.0.4.%.%.%.%.%.%.%.%.%.%.%.%.%.%.4.0.0.0.0.0.0.0.4.  4 k.k.j.  e A.D.D.G.G.G.H.H.H.",
"H.H.H.Z.A.A.D.G.G.r   p.k.k.4   @.,.,.,.,.8.:.f                                 f >.0.0.0.0.0.4.  4 k.k.a.  e A.A.F.G.G.F.H.H.H.",
"H.H.  u A.A.D.G.G.r   H k.k.4   @.,.,.,.,.5.2   w U U U U U U U U U U U U U U w   2 0.0.0.0.0.4.  4 k.k.F   e A.A.D.G.G.p   H.H.",
"H.H.  = A.D.D.G.G.r     F p.4   @.,.,.,.,.#.  i F.G.G.G.G.G.G.G.G.G.G.G.G.G.G.F.i   *.0.0.0.0.6.  4 y.S O   e D.A.D.G.G.=   H.H.",
"H.H.  = A.A.D.G.G.r             +.,.,.$.,...  Y G.G.G.G.G.G.G.G.G.G.G.G.G.G.G.G.Y   | 0.0.0.0.4.            e A.A.D.G.G.=   H.H.",
"H.H.  = A.A.D.G.G.r   H.        @.,.,.,.,.-.  o v.M.M.M.M.M.S.G.G.S.M.M.M.M.M.v.o . 4.0.0.0.0.4.        H.  e A.A.D.G.G.=   H.H.",
"H.H.  = A.A.D.G.G.r   H.H.H.    @.,.,.,.,.8.c               y C.C.s               ) 0.0.0.0.0.4.    H.H.H.  r D.A.D.G.G.=   H.H.",
"H.H.  = N.N.N.V.V.w   H.H.H.    @.,.,.,.,.8.0.{ v h h h h h _ 0.0.) h h h h h v %.0.0.0.0.0.0.4.    H.H.H.  w N.N.B.V.V.=   H.H.",
"H.H.                  H.H.H.    @.,.,.,.,.8.0.0.0.0.0.0.0.0.0.0.0.0.0.0.0.0.0.0.0.0.0.0.0.0.0.4.    H.H.H.                  H.H.",
"H.H.H.              H.H.H.H.    @.$.,.,.,.2.3.3.8.9.0.0.0.0.0.0.0.0.0.0.0.0.9.5.8.3.8.2.8.2.2.1.    H.H.H.H.              H.H.H.",
"H.H.H.H.H.H.H.H.H.H.H.H.H.H.    @.,.,.,.,.,.,.,.,.,.<.0.0.0.0.0.0.0.0.0.9.<.,.,.,.,.,.,.,.,.,.@.    H.H.H.H.H.H.H.H.H.H.H.H.H.H.",
"H.H.H.H.H.H.H.H.H.H.H.H.        : : : : : : : : < ! @.,.9.0.0.0.0.0.0.9.,.+.z < : : : : : : : @         H.H.H.H.H.H.H.H.H.H.H.H.",
"H.H.H.H.H.H.H.H.H.H.H.                              < +.,.0.0.0.0.0.0.<.O.@                               H.H.H.H.H.H.H.H.H.H.H.",
"H.H.H.H.H.H.H.H.H.H.  O G e.i.i.i.j.k.k.k.k.k.k.y.6   j ,.8.0.0.0.0.<.,.d   7 q.i.i.i.d.k.k.k.k.k.k.j.H O   H.H.H.H.H.H.H.H.H.H.",
"H.H.H.H.H.H.H.H.H.    Z i.i.i.i.d.k.k.k.k.k.k.k.k.h.$   +.<.0.0.0.0.<.O.  $ u.i.i.i.i.k.k.k.k.k.k.k.k.k.D     H.H.H.H.H.H.H.H.H.",
"H.H.H.H.H.H.H.H.H.    q.i.i.i.i.g.k.k.k.k.k.k.k.k.k.B   ' ,.0.0.0.0.,.'   q i.i.i.i.i.k.k.k.k.k.k.k.k.k.i.    H.H.H.H.H.H.H.H.H.",
"H.H.H.H.H.H.H.H.H.    % % & % % & & & & & & & & % % X   + : > > > > @ +   X & % % & % & & & & & & & & & &     H.H.H.H.H.H.H.H.H.",
"H.H.H.H.H.H.H.H.H.                                                                                            H.H.H.H.H.H.H.H.H.",
"H.H.H.H.H.H.H.H.H.    w.e.e.e.e.p.f.f.f.f.f.f.f.h.f.C   H.H.H.H.H.H.H.H.  N e.e.e.e.y.f.f.f.f.f.f.f.f.f.a.    H.H.H.H.H.H.H.H.H.",
"H.H.H.H.H.H.H.H.H.    y.i.i.i.i.g.k.k.k.k.k.k.k.k.k.A   H.H.H.H.H.H.H.H.O N i.i.i.i.i.k.k.k.k.k.k.k.k.k.j.    H.H.H.H.H.H.H.H.H.",
"H.H.H.H.H.H.H.H.H.    y.i.i.i.i.f.k.k.k.k.k.k.k.k.k.A   H.H.H.H.H.H.H.H.  C i.i.i.i.i.k.k.k.k.k.k.k.k.k.j.    H.H.H.H.H.H.H.H.H.",
"H.H.H.H.H.H.H.H.H.    % % % % % & & & & & & & & & & X   H.H.H.H.H.H.H.H.  X % % % & & & & & & & & & & & %     H.H.H.H.H.H.H.H.H.",
"H.H.H.H.H.H.H.H.H.                                      H.H.H.H.H.H.H.H.                                      H.H.H.H.H.H.H.H.H.",
"H.H.H.H.H.H.H.H.H.    w.i.i.i.i.g.k.k.k.k.k.k.k.k.k.V   H.H.H.H.H.H.H.H.  q i.i.i.i.i.k.k.k.k.k.k.k.k.k.p.    H.H.H.H.H.H.H.H.H.",
"H.H.H.H.H.H.H.H.H.    D i.i.i.i.d.k.k.k.k.k.k.k.k.k.&   H.H.H.H.H.H.H.H.  & i.i.i.i.i.k.k.k.k.k.k.k.k.k.J     H.H.H.H.H.H.H.H.H.",
"H.H.H.H.H.H.H.H.H.H.  X J i.i.i.i.j.k.k.k.k.k.k.g.V     H.H.H.H.H.H.H.H.    8 e.i.i.i.d.k.k.k.k.k.k.k.r.$   H.H.H.H.H.H.H.H.H.H.",
"H.H.H.H.H.H.H.H.H.H.      X % % & & & & & & & %       H.H.H.H.H.H.H.H.H.H.      $ & % & & & & & & & .       H.H.H.H.H.H.H.H.H.H.",
"H.H.H.H.H.H.H.H.H.H.H.H.                            H.H.H.H.H.H.H.H.H.H.H.H.                            H.H.H.H.H.H.H.H.H.H.H.H."
};
